<svg width="141.609192" height="32.000000" viewBox="0 0 141.609 32" fill="none" xmlns="http://www.w3.org/2000/svg" xmlns:xlink="http://www.w3.org/1999/xlink">
	<desc>
			Created with Pixso.
	</desc>
	<defs>
		<clipPath id="clip94_437">
			<rect id="Simplification" rx="-0.500000" width="140.609192" height="31.000000" transform="translate(0.500000 0.500000)" fill="white" fill-opacity="0"/>
		</clipPath>
	</defs>
	<g opacity="0.600000">
		<rect id="Simplification" rx="-0.500000" width="140.609192" height="31.000000" transform="translate(0.500000 0.500000)" fill="#FFFFFF" fill-opacity="0"/>
		<g clip-path="url(#clip94_437)">
			<path id="Vector" d="M103.47 12.19C103.53 12.24 103.59 12.3 103.65 12.35C103.68 12.39 103.68 12.39 103.72 12.42C104.03 12.73 104.33 13.04 104.59 13.39C104.64 13.46 104.69 13.52 104.74 13.59C105.85 15.04 106.46 16.81 106.74 18.61C106.74 18.64 106.75 18.68 106.75 18.72C107.13 21.23 106.77 23.97 105.67 26.26C105.66 26.29 105.64 26.31 105.63 26.34C105.23 27.15 104.71 27.9 104.1 28.56C104.03 28.63 103.96 28.71 103.89 28.79C102.43 30.46 100.15 31.39 98.02 31.77C97.98 31.78 97.94 31.78 97.9 31.79C97.19 31.91 96.49 31.94 95.77 31.93C95.73 31.93 95.69 31.93 95.65 31.93C95.01 31.93 94.38 31.91 93.75 31.81C93.71 31.8 93.66 31.8 93.61 31.79C91.02 31.36 88.43 30.15 86.85 27.98C86.8 27.91 86.75 27.84 86.7 27.78C86.46 27.47 86.25 27.15 86.06 26.81C86.04 26.76 86.04 26.76 86.01 26.72C85.22 25.29 84.81 23.72 84.63 22.1C84.63 22.07 84.62 22.03 84.62 22C84.51 20.89 84.52 19.7 84.7 18.61C84.71 18.56 84.72 18.52 84.73 18.47C85.04 16.56 85.74 14.73 86.98 13.24C87.01 13.21 87.01 13.21 87.03 13.18C87.43 12.7 87.85 12.26 88.34 11.88C88.39 11.84 88.44 11.8 88.48 11.77C88.88 11.45 89.3 11.18 89.74 10.92C89.77 10.9 89.79 10.89 89.82 10.88C92.94 9.06 97.3 9.02 103.47 12.19ZM93.02 15.22C92.98 15.25 92.98 15.25 92.94 15.28C91.88 16.14 91.54 17.75 91.4 19.04C91.19 21.11 91.15 23.93 92.51 25.65C92.55 25.71 92.6 25.76 92.65 25.82C92.67 25.84 92.69 25.87 92.71 25.9C93.28 26.59 94.22 26.96 95.1 27.06C96.31 27.15 97.5 27 98.46 26.18C99.68 25.1 99.99 23.33 100.09 21.78C100.21 19.77 100.19 17.18 98.8 15.57C98.77 15.54 98.74 15.51 98.72 15.48C98.69 15.45 98.67 15.42 98.64 15.39C97.95 14.65 96.93 14.37 95.95 14.33C94.91 14.3 93.81 14.51 93.02 15.22Z" fill="#373737" fill-opacity="1.000000" fill-rule="nonzero"/>
			<path id="Vector" d="M51.53 10.62C51.57 10.65 51.57 10.65 51.62 10.67C52.21 10.97 52.77 11.32 53.29 11.73C53.32 11.75 53.36 11.78 53.39 11.81C54.22 12.47 54.93 13.26 55.5 14.16C55.52 14.19 55.52 14.19 55.54 14.23C57.31 17.02 57.61 20.64 56.89 23.82C56.7 24.65 56.43 25.46 56.05 26.22C56.03 26.25 56.02 26.28 56 26.32C55.79 26.75 55.56 27.16 55.28 27.54C55.26 27.57 55.24 27.59 55.23 27.62C54.69 28.36 54.07 29.09 53.33 29.64C53.31 29.66 53.29 29.67 53.27 29.69C51.75 30.85 49.99 31.52 48.11 31.81C48.05 31.82 48.05 31.82 48 31.83C46.74 32.02 45.36 32.01 44.1 31.81C44.04 31.8 44.04 31.8 43.98 31.79C42.7 31.58 41.49 31.19 40.34 30.6C40.32 30.58 40.29 30.57 40.26 30.55C39.53 30.18 38.87 29.67 38.27 29.11C38.21 29.05 38.14 28.99 38.08 28.94C38 28.88 37.94 28.81 37.87 28.74C37.77 28.62 37.67 28.5 37.56 28.39C36.22 26.91 35.47 24.97 35.13 23.03C35.12 22.99 35.12 22.95 35.11 22.91C34.99 22.21 34.96 21.52 34.96 20.82C34.96 20.68 34.96 20.55 34.96 20.41C34.96 19.6 35.02 18.79 35.18 18C35.19 17.95 35.2 17.9 35.21 17.86C35.31 17.37 35.45 16.9 35.6 16.44C35.62 16.39 35.62 16.39 35.63 16.34C35.88 15.6 36.21 14.88 36.63 14.23C36.65 14.21 36.66 14.18 36.68 14.16C37.24 13.29 37.95 12.48 38.76 11.84C38.8 11.81 38.84 11.78 38.87 11.75C41.51 9.65 45.14 9.14 51.53 10.62ZM42.99 15.6C41.83 16.95 41.7 18.97 41.7 20.66C41.7 20.7 41.7 20.74 41.7 20.78C41.7 22.61 41.9 24.67 43.22 26.06C44.03 26.85 45.15 27.09 46.24 27.08C47.16 27.06 48.06 26.83 48.77 26.22C48.81 26.19 48.81 26.19 48.85 26.15C49.97 25.22 50.3 23.53 50.43 22.15C50.53 20.98 50.52 19.77 50.35 18.61C50.34 18.57 50.34 18.53 50.33 18.48C50.18 17.47 49.88 16.37 49.17 15.59C49.14 15.55 49.14 15.55 49.1 15.51C48.49 14.77 47.54 14.45 46.62 14.35C45.25 14.23 43.95 14.58 42.99 15.6Z" fill="#373737" fill-opacity="1.000000" fill-rule="nonzero"/>
			<path id="Vector" d="M23.95 9.47C23.98 9.47 24.01 9.47 24.04 9.47C25.99 9.48 27.78 10.15 29.18 11.52C29.32 11.67 29.45 11.82 29.57 11.99C29.59 12.02 29.62 12.05 29.65 12.08C31.1 13.94 31.35 16.29 31.34 18.56C31.34 18.74 31.34 18.92 31.34 19.09C31.34 19.39 31.34 19.7 31.34 20C31.34 20.44 31.34 20.87 31.34 21.31C31.34 22.02 31.34 22.73 31.34 23.44C31.34 24.13 31.34 24.82 31.34 25.51C31.34 25.56 31.34 25.6 31.34 25.64C31.34 25.98 31.34 26.32 31.34 26.65C31.34 28.3 31.33 29.94 31.33 31.59C29.17 31.59 27.01 31.59 24.79 31.59C24.78 30.56 24.78 29.54 24.78 28.48C24.78 27.83 24.78 27.18 24.78 26.53C24.78 26.18 24.78 25.84 24.78 25.5C24.78 25.44 24.78 25.44 24.78 25.37C24.77 24.68 24.77 23.99 24.77 23.3C24.77 22.59 24.77 21.88 24.77 21.17C24.77 20.73 24.77 20.3 24.77 19.86C24.77 19.56 24.77 19.26 24.77 18.96C24.77 18.78 24.76 18.61 24.77 18.44C24.77 17.27 24.76 16.06 23.9 15.15C23.25 14.54 22.43 14.42 21.58 14.45C20.39 14.5 19.28 15.14 18.39 15.88C18.35 15.91 18.31 15.94 18.27 15.97C18.16 16.06 18.16 16.06 18.14 16.19C18.14 16.24 18.14 16.29 18.14 16.33C18.14 16.36 18.14 16.39 18.14 16.41C18.14 16.5 18.14 16.59 18.14 16.68C18.14 16.74 18.14 16.81 18.14 16.87C18.14 17.05 18.14 17.23 18.14 17.4C18.14 17.59 18.14 17.78 18.14 17.97C18.13 18.3 18.13 18.63 18.13 18.96C18.14 19.44 18.14 19.92 18.13 20.39C18.13 21.17 18.13 21.94 18.13 22.71C18.13 23.47 18.13 24.22 18.13 24.97C18.13 25.04 18.13 25.04 18.13 25.11C18.13 25.34 18.13 25.57 18.13 25.81C18.13 27.73 18.13 29.66 18.13 31.59C15.97 31.59 13.81 31.59 11.58 31.59C11.58 24.4 11.58 17.22 11.58 9.82C16.4 9.82 16.4 9.82 16.86 10.24C17.18 10.58 17.3 11.03 17.43 11.47C17.44 11.52 17.44 11.52 17.46 11.57C17.51 11.74 17.56 11.92 17.61 12.1C17.74 11.99 17.86 11.88 17.98 11.78C18.48 11.34 19.02 10.91 19.6 10.59C19.64 10.56 19.64 10.56 19.68 10.54C20.48 10.1 21.3 9.8 22.2 9.62C22.23 9.62 22.26 9.61 22.29 9.61C22.84 9.5 23.39 9.47 23.95 9.47Z" fill="#373737" fill-opacity="1.000000" fill-rule="nonzero"/>
			<path id="Vector" d="M123.54 0.84C123.54 1.12 123.53 1.4 123.52 1.68C123.51 1.78 123.51 1.87 123.51 1.97C123.5 2.25 123.49 2.52 123.48 2.8C123.47 2.89 123.47 2.98 123.47 3.08C123.46 3.21 123.46 3.34 123.45 3.47C123.45 3.51 123.45 3.55 123.45 3.59C123.41 4.49 123.41 4.49 123.08 4.8C122.62 5.18 122.11 5.22 121.54 5.24C120.56 5.27 119.67 5.45 118.98 6.18C118.13 7.17 118.27 8.72 118.25 9.89C119.92 9.89 121.6 9.89 123.32 9.89C123.32 11.36 123.32 12.83 123.32 14.34C121.71 14.34 120.1 14.34 118.43 14.34C118.43 20.03 118.43 25.73 118.43 31.59C116.28 31.59 114.14 31.59 111.92 31.59C111.91 25.9 111.9 20.2 111.89 14.34C111.36 14.23 110.84 14.12 110.3 14.01C109.2 13.59 109.2 13.59 108.95 13.07C108.85 12.84 108.83 12.65 108.83 12.4C108.83 12.38 108.83 12.35 108.83 12.32C108.83 12.23 108.83 12.14 108.83 12.05C108.83 11.99 108.83 11.93 108.83 11.88C108.83 11.67 108.83 11.46 108.83 11.26C108.83 10.79 108.83 10.33 108.83 9.85C109.85 9.85 110.87 9.85 111.92 9.85C111.92 9.18 111.92 9.18 111.91 8.51C111.89 6.62 112.43 4.69 113.69 3.23C113.73 3.19 113.73 3.19 113.76 3.14C113.85 3.05 113.93 2.96 114.02 2.86C114.05 2.83 114.08 2.8 114.11 2.77C115.42 1.39 117.29 0.76 119.13 0.51C119.18 0.5 119.18 0.5 119.23 0.5C120.58 0.32 122.27 0.32 123.54 0.84Z" fill="#373737" fill-opacity="1.000000" fill-rule="nonzero"/>
			<path id="Vector" d="M132.21 3.51C132.25 3.51 132.29 3.51 132.33 3.51C132.45 3.51 132.57 3.51 132.69 3.52C132.76 3.52 132.84 3.52 132.91 3.52C133.19 3.52 133.46 3.52 133.74 3.52C134.67 3.52 134.67 3.52 135.61 3.53C135.61 5.61 135.61 7.7 135.61 9.85C137.38 9.85 139.15 9.85 140.98 9.85C140.98 11.33 140.98 12.81 140.98 14.34C139.21 14.34 137.44 14.34 135.61 14.34C135.61 16.31 135.61 16.31 135.62 18.28C135.62 18.54 135.62 18.81 135.62 19.07C135.62 19.11 135.62 19.14 135.62 19.17C135.62 19.71 135.62 20.25 135.62 20.78C135.62 21.34 135.62 21.89 135.62 22.44C135.62 22.78 135.62 23.12 135.62 23.46C135.62 23.69 135.62 23.92 135.63 24.16C135.63 24.29 135.63 24.43 135.63 24.56C135.63 24.71 135.63 24.85 135.63 25C135.63 25.04 135.63 25.08 135.63 25.13C135.63 25.6 135.75 26.08 136.08 26.44C136.34 26.69 136.64 26.81 136.99 26.81C137.4 26.79 137.73 26.71 138.1 26.52C138.41 26.37 138.68 26.27 139.03 26.37C139.25 26.46 139.39 26.62 139.53 26.81C139.55 26.84 139.56 26.86 139.58 26.88C139.72 27.08 139.85 27.29 139.97 27.5C140.1 27.71 140.23 27.91 140.36 28.12C140.57 28.44 140.78 28.77 140.99 29.09C141.1 29.26 141.2 29.43 141.31 29.59C141.33 29.61 141.34 29.64 141.36 29.66C141.4 29.72 141.44 29.78 141.48 29.84C141.53 29.94 141.53 29.94 141.53 30.01C141.17 30.7 139.62 31.18 138.92 31.41C138.27 31.61 137.61 31.75 136.93 31.85C136.9 31.85 136.87 31.86 136.84 31.86C135.89 32 134.82 32.01 133.88 31.81C133.85 31.81 133.82 31.8 133.78 31.79C132.28 31.48 130.96 30.73 130.08 29.45C130.01 29.33 129.94 29.21 129.87 29.09C129.86 29.07 129.85 29.05 129.83 29.02C129.53 28.48 129.35 27.89 129.22 27.29C129.21 27.25 129.2 27.22 129.19 27.18C129.05 26.47 129.05 25.75 129.05 25.03C129.05 24.89 129.05 24.74 129.05 24.6C129.05 24.35 129.05 24.1 129.05 23.85C129.06 23.49 129.06 23.13 129.06 22.78C129.06 22.19 129.06 21.61 129.06 21.03C129.06 20.46 129.06 19.89 129.06 19.33C129.06 19.29 129.06 19.26 129.06 19.22C129.06 19.05 129.06 18.87 129.06 18.7C129.06 17.24 129.06 15.79 129.06 14.34C129.04 14.34 129.01 14.34 128.98 14.34C128.74 14.34 128.49 14.35 128.25 14.35C128.12 14.35 127.99 14.35 127.87 14.35C127.72 14.35 127.58 14.35 127.43 14.35C127.39 14.36 127.34 14.36 127.3 14.36C126.89 14.36 126.6 14.26 126.3 13.98C126.07 13.72 126 13.44 126.01 13.1C126.01 13.07 126.01 13.04 126.01 13.01C126.01 12.92 126.01 12.83 126.01 12.73C126.01 12.68 126.01 12.62 126.01 12.56C126.01 12.35 126.01 12.13 126.01 11.92C126.01 11.45 126.01 10.97 126.01 10.48C127.14 10.26 128.27 10.04 129.43 9.82C129.59 9.26 129.59 9.26 129.73 8.7C129.74 8.66 129.75 8.61 129.76 8.57C129.79 8.44 129.82 8.31 129.85 8.18C129.87 8.08 129.9 7.99 129.92 7.9C129.98 7.65 130.04 7.41 130.1 7.16C130.19 6.77 130.28 6.38 130.38 5.99C130.41 5.85 130.44 5.72 130.47 5.58C130.85 4.01 130.85 4.01 131.31 3.69C131.6 3.55 131.89 3.51 132.21 3.51Z" fill="#373737" fill-opacity="1.000000" fill-rule="nonzero"/>
			<path id="Vector" d="M81.5 9.78C81.5 12.04 81.5 14.29 81.5 16.62C81.27 16.64 81.04 16.67 80.8 16.69C80.68 16.72 80.58 16.75 80.46 16.79C80.43 16.8 80.41 16.81 80.38 16.82C79.61 17.1 78.91 17.65 78.49 18.35C78.47 18.38 78.47 18.38 78.45 18.41C78.13 18.92 77.88 19.51 77.82 20.11C77.82 20.14 77.82 20.16 77.82 20.18C77.71 21.3 77.99 22.39 78.67 23.28C79.29 24.03 80.08 24.58 81.06 24.71C81.21 24.72 81.35 24.74 81.5 24.75C81.5 27.01 81.5 29.26 81.5 31.59C79.93 31.59 78.4 31.26 76.98 30.56C76.95 30.55 76.92 30.53 76.88 30.51C76.03 30.09 75.25 29.55 74.55 28.91C74.5 28.86 74.46 28.82 74.41 28.78C74.1 28.51 73.82 28.22 73.56 27.9C73.51 27.84 73.46 27.77 73.4 27.71C72.91 27.14 72.5 26.48 72.16 25.82C72.14 25.77 72.14 25.77 72.11 25.73C71.32 24.16 70.93 22.45 70.94 20.7C70.94 20.67 70.94 20.63 70.94 20.6C70.94 18.42 71.57 16.3 72.79 14.49C72.8 14.46 72.82 14.44 72.83 14.42C73.2 13.88 73.62 13.38 74.07 12.91C74.09 12.89 74.11 12.87 74.13 12.85C74.38 12.59 74.64 12.36 74.92 12.13C74.96 12.1 75 12.06 75.05 12.03C75.55 11.61 76.1 11.27 76.68 10.96C76.72 10.94 76.72 10.94 76.75 10.92C78.23 10.13 79.84 9.78 81.5 9.78Z" fill="#373737" fill-opacity="1.000000" fill-rule="nonzero"/>
			<path id="Vector" d="M63.63 9.42C63.75 9.47 63.85 9.55 63.96 9.63C64 9.66 64 9.66 64.04 9.69C66.24 11.32 68.78 13.3 70.75 18.19C70.87 19.01 70.9 19.84 70.9 20.66C70.9 20.69 70.9 20.72 70.9 20.74C70.91 23.51 70.3 25.69 67.78 28.45C66.51 29.72 65.11 30.86 63.66 31.92C63.52 31.86 63.43 31.77 63.32 31.66C63.3 31.64 63.29 31.62 63.27 31.61C63.2 31.54 63.14 31.48 63.07 31.41C63.03 31.37 62.98 31.32 62.94 31.28C62.81 31.15 62.69 31.03 62.57 30.9C62.44 30.77 62.31 30.64 62.18 30.52C61.93 30.27 61.69 30.02 61.44 29.78C61.16 29.5 60.88 29.22 60.6 28.94C60.03 28.36 59.46 27.79 58.88 27.21C58.95 27.07 59.04 26.97 59.16 26.86C59.17 26.84 59.19 26.82 59.21 26.8C59.28 26.74 59.34 26.68 59.4 26.62C59.49 26.53 59.57 26.45 59.65 26.37C59.68 26.34 59.68 26.34 59.71 26.31C59.81 26.21 59.91 26.11 60 26C60.22 25.74 60.47 25.51 60.72 25.27C61.01 24.98 61.01 24.98 61.29 24.68C61.52 24.41 61.78 24.17 62.03 23.92C62.36 23.59 62.36 23.59 62.67 23.25C62.88 23.02 63.11 22.8 63.33 22.58C63.62 22.3 63.62 22.3 63.9 21.99C64.02 21.85 64.15 21.72 64.28 21.59C64.3 21.57 64.32 21.55 64.35 21.53C64.44 21.43 64.54 21.34 64.63 21.25C64.7 21.18 64.77 21.11 64.84 21.04C64.86 21.02 64.88 21 64.9 20.98C65 20.88 65.09 20.8 65.14 20.67C64.87 20.36 64.59 20.08 64.3 19.8C63.82 19.32 63.82 19.32 63.68 19.16C63.48 18.92 63.25 18.7 63.02 18.48C62.49 17.95 62.49 17.95 62.3 17.73C62.11 17.52 61.91 17.33 61.71 17.14C61.21 16.63 61.21 16.63 61.07 16.47C60.87 16.23 60.63 16.02 60.41 15.79C59.87 15.26 59.87 15.26 59.68 15.04C59.53 14.87 59.37 14.72 59.22 14.56C59.18 14.52 59.14 14.49 59.11 14.45C59.02 14.37 58.93 14.28 58.85 14.19C58.9 14.05 59 13.96 59.1 13.85C59.13 13.82 59.13 13.82 59.16 13.79C59.22 13.73 59.29 13.67 59.35 13.6C59.4 13.56 59.44 13.51 59.49 13.47C59.61 13.34 59.73 13.22 59.86 13.09C59.93 13.02 60.01 12.94 60.09 12.86C60.36 12.59 60.63 12.32 60.9 12.05C61.15 11.8 61.4 11.55 61.65 11.3C61.86 11.08 62.08 10.86 62.3 10.65C62.42 10.52 62.55 10.39 62.68 10.26C62.8 10.14 62.92 10.02 63.05 9.9C63.09 9.85 63.13 9.81 63.18 9.76C63.24 9.7 63.3 9.64 63.36 9.58C63.39 9.55 63.43 9.51 63.46 9.48C63.55 9.41 63.55 9.41 63.63 9.42Z" fill="#373737" fill-opacity="1.000000" fill-rule="nonzero"/>
			<path id="Vector" d="M0.73 9.82C2.88 9.82 5.03 9.82 7.24 9.82C7.24 17 7.24 24.19 7.24 31.59C5.09 31.59 2.94 31.59 0.73 31.59C0.73 24.4 0.73 17.22 0.73 9.82Z" fill="#373737" fill-opacity="1.000000" fill-rule="nonzero"/>
			<path id="Vector" d="M3.91 0.05C3.94 0.05 3.97 0.05 3.99 0.05C5.11 0.06 6.05 0.48 6.85 1.25C7.55 1.96 7.93 2.88 7.95 3.88C7.92 4.93 7.5 5.84 6.76 6.57C5.95 7.33 4.92 7.71 3.82 7.7C2.76 7.67 1.83 7.22 1.1 6.47C1.07 6.44 1.04 6.41 1.01 6.38C0.23 5.56 0.03 4.56 0.06 3.47C0.08 3.21 0.13 2.97 0.22 2.72C0.23 2.67 0.25 2.62 0.26 2.58C0.6 1.63 1.34 0.85 2.24 0.4C2.78 0.15 3.32 0.05 3.91 0.05Z" fill="#373737" fill-opacity="1.000000" fill-rule="nonzero"/>
		</g>
	</g>
</svg>
