<svg width="26.226562" height="26.211914" viewBox="0 0 26.2266 26.2119" fill="none" xmlns="http://www.w3.org/2000/svg" xmlns:xlink="http://www.w3.org/1999/xlink">
	<desc>
			Created with Pixso.
	</desc>
	<defs>
		<radialGradient gradientTransform="translate(3.48448 26.3356) rotate(0) scale(34.2378 34.2173)" cx="0.000000" cy="0.000000" r="1.000000" id="paint_radial_305_144_0" gradientUnits="userSpaceOnUse">
			<stop offset="0.090000" stop-color="#FA8F21"/>
			<stop offset="0.780000" stop-color="#D82D7E"/>
		</radialGradient>
		<radialGradient gradientTransform="translate(15.9058 27.5099) rotate(0) scale(26.9841 26.968)" cx="0.000000" cy="0.000000" r="1.000000" id="paint_radial_305_145_0" gradientUnits="userSpaceOnUse">
			<stop offset="0.640000" stop-color="#8C3AAA" stop-opacity="0.000000"/>
			<stop offset="1.000000" stop-color="#8C3AAA"/>
		</radialGradient>
	</defs>
	<path id="Vector" d="M8.74 13.1C8.74 10.69 10.69 8.73 13.11 8.73C15.52 8.73 17.48 10.69 17.48 13.1C17.48 15.51 15.52 17.47 13.11 17.47C10.69 17.47 8.74 15.51 8.74 13.1ZM6.37 13.1C6.37 16.82 9.39 19.83 13.11 19.83C16.83 19.83 19.84 16.82 19.84 13.1C19.84 9.38 16.83 6.37 13.11 6.37C9.39 6.37 6.37 9.38 6.37 13.1ZM18.54 6.1C18.54 6.42 18.63 6.72 18.8 6.98C18.97 7.24 19.22 7.44 19.51 7.56C19.79 7.68 20.11 7.71 20.42 7.65C20.72 7.59 21 7.44 21.22 7.22C21.44 7 21.59 6.72 21.65 6.41C21.71 6.11 21.68 5.79 21.56 5.5C21.44 5.22 21.24 4.97 20.98 4.8C20.73 4.62 20.42 4.53 20.11 4.53L20.11 4.53C19.69 4.53 19.29 4.7 19 4.99C18.7 5.29 18.54 5.69 18.54 6.1ZM7.81 23.77C6.53 23.71 5.84 23.5 5.38 23.32C4.76 23.08 4.33 22.8 3.87 22.34C3.41 21.88 3.12 21.44 2.89 20.83C2.71 20.37 2.49 19.68 2.43 18.4C2.37 17.02 2.36 16.6 2.36 13.1C2.36 9.6 2.37 9.19 2.43 7.8C2.49 6.53 2.71 5.83 2.89 5.37C3.12 4.76 3.41 4.32 3.87 3.86C4.33 3.4 4.76 3.12 5.38 2.88C5.84 2.7 6.53 2.49 7.81 2.43C9.19 2.37 9.61 2.36 13.11 2.36C16.61 2.36 17.02 2.37 18.41 2.43C19.69 2.49 20.38 2.7 20.84 2.88C21.46 3.12 21.89 3.41 22.35 3.86C22.81 4.32 23.09 4.76 23.33 5.37C23.51 5.83 23.73 6.53 23.78 7.8C23.85 9.19 23.86 9.6 23.86 13.1C23.86 16.6 23.85 17.01 23.78 18.4C23.73 19.68 23.51 20.37 23.33 20.83C23.09 21.44 22.81 21.88 22.35 22.34C21.89 22.8 21.46 23.08 20.84 23.32C20.38 23.5 19.69 23.71 18.41 23.77C17.03 23.83 16.61 23.85 13.11 23.85C9.61 23.85 9.19 23.83 7.81 23.77ZM7.7 0.07C6.31 0.14 5.35 0.36 4.52 0.68C3.66 1.02 2.93 1.47 2.2 2.19C1.47 2.92 1.02 3.65 0.68 4.52C0.36 5.35 0.14 6.3 0.07 7.7C0.01 9.1 0 9.54 0 13.1C0 16.66 0.01 17.11 0.07 18.5C0.14 19.9 0.36 20.85 0.68 21.69C1.02 22.55 1.47 23.28 2.2 24.01C2.93 24.73 3.66 25.18 4.52 25.52C5.35 25.84 6.31 26.06 7.7 26.13C9.1 26.19 9.55 26.21 13.11 26.21C16.67 26.21 17.12 26.19 18.52 26.13C19.91 26.06 20.86 25.84 21.7 25.52C22.56 25.18 23.29 24.74 24.02 24.01C24.75 23.28 25.2 22.55 25.53 21.69C25.86 20.85 26.08 19.9 26.14 18.5C26.21 17.11 26.22 16.66 26.22 13.1C26.22 9.54 26.21 9.1 26.14 7.7C26.08 6.3 25.86 5.35 25.53 4.52C25.2 3.65 24.75 2.92 24.02 2.19C23.29 1.47 22.56 1.02 21.7 0.68C20.86 0.36 19.91 0.14 18.52 0.07C17.12 0.01 16.67 0 13.11 0C9.55 0 9.1 0.01 7.7 0.07Z" fill="url(#paint_radial_305_144_0)" fill-opacity="1.000000" fill-rule="nonzero"/>
	<path id="Vector" d="M8.74 13.1C8.74 10.69 10.69 8.73 13.11 8.73C15.52 8.73 17.48 10.69 17.48 13.1C17.48 15.51 15.52 17.47 13.11 17.47C10.69 17.47 8.74 15.51 8.74 13.1ZM6.37 13.1C6.37 16.82 9.39 19.83 13.11 19.83C16.83 19.83 19.84 16.82 19.84 13.1C19.84 9.38 16.83 6.37 13.11 6.37C9.39 6.37 6.37 9.38 6.37 13.1ZM18.54 6.1C18.54 6.42 18.63 6.72 18.8 6.98C18.97 7.24 19.22 7.44 19.51 7.56C19.79 7.68 20.11 7.71 20.42 7.65C20.72 7.59 21 7.44 21.22 7.22C21.44 7 21.59 6.72 21.65 6.41C21.71 6.11 21.68 5.79 21.56 5.5C21.44 5.22 21.24 4.97 20.98 4.8C20.73 4.62 20.42 4.53 20.11 4.53L20.11 4.53C19.69 4.53 19.29 4.7 19 4.99C18.7 5.29 18.54 5.69 18.54 6.1ZM7.81 23.77C6.53 23.71 5.84 23.5 5.38 23.32C4.76 23.08 4.33 22.8 3.87 22.34C3.41 21.88 3.12 21.44 2.89 20.83C2.71 20.37 2.49 19.68 2.43 18.4C2.37 17.02 2.36 16.6 2.36 13.1C2.36 9.6 2.37 9.19 2.43 7.8C2.49 6.53 2.71 5.83 2.89 5.37C3.12 4.76 3.41 4.32 3.87 3.86C4.33 3.4 4.76 3.12 5.38 2.88C5.84 2.7 6.53 2.49 7.81 2.43C9.19 2.37 9.61 2.36 13.11 2.36C16.61 2.36 17.02 2.37 18.41 2.43C19.69 2.49 20.38 2.7 20.84 2.88C21.46 3.12 21.89 3.41 22.35 3.86C22.81 4.32 23.09 4.76 23.33 5.37C23.51 5.83 23.73 6.53 23.78 7.8C23.85 9.19 23.86 9.6 23.86 13.1C23.86 16.6 23.85 17.01 23.78 18.4C23.73 19.68 23.51 20.37 23.33 20.83C23.09 21.44 22.81 21.88 22.35 22.34C21.89 22.8 21.46 23.08 20.84 23.32C20.38 23.5 19.69 23.71 18.41 23.77C17.03 23.83 16.61 23.85 13.11 23.85C9.61 23.85 9.19 23.83 7.81 23.77ZM7.7 0.07C6.31 0.14 5.35 0.36 4.52 0.68C3.66 1.02 2.93 1.47 2.2 2.19C1.47 2.92 1.02 3.65 0.68 4.52C0.36 5.35 0.14 6.3 0.07 7.7C0.01 9.1 0 9.54 0 13.1C0 16.66 0.01 17.11 0.07 18.5C0.14 19.9 0.36 20.85 0.68 21.69C1.02 22.55 1.47 23.28 2.2 24.01C2.93 24.73 3.66 25.18 4.52 25.52C5.35 25.84 6.31 26.06 7.7 26.13C9.1 26.19 9.55 26.21 13.11 26.21C16.67 26.21 17.12 26.19 18.52 26.13C19.91 26.06 20.86 25.84 21.7 25.52C22.56 25.18 23.29 24.74 24.02 24.01C24.75 23.28 25.2 22.55 25.53 21.69C25.86 20.85 26.08 19.9 26.14 18.5C26.21 17.11 26.22 16.66 26.22 13.1C26.22 9.54 26.21 9.1 26.14 7.7C26.08 6.3 25.86 5.35 25.53 4.52C25.2 3.65 24.75 2.92 24.02 2.19C23.29 1.47 22.56 1.02 21.7 0.68C20.86 0.36 19.91 0.14 18.52 0.07C17.12 0.01 16.67 0 13.11 0C9.55 0 9.1 0.01 7.7 0.07Z" fill="url(#paint_radial_305_145_0)" fill-opacity="1.000000" fill-rule="nonzero"/>
</svg>
