<svg width="26.227539" height="26.227539" viewBox="0 0 26.2275 26.2275" fill="none" xmlns="http://www.w3.org/2000/svg" xmlns:xlink="http://www.w3.org/1999/xlink">
	<desc>
			Created with Pixso.
	</desc>
	<defs/>
	<path id="Vector" d="M0 1.87C0 0.84 0.86 0 1.93 0L24.28 0C25.35 0 26.22 0.84 26.22 1.87L26.22 24.34C26.22 25.38 25.35 26.22 24.28 26.22L1.93 26.22C0.86 26.22 0 25.38 0 24.34L0 1.87L0 1.87Z" fill="#006699" fill-opacity="1.000000" fill-rule="nonzero"/>
	<path id="Vector" d="M7.97 21.94L7.97 10.14L4.04 10.14L4.04 21.94L7.97 21.94L7.97 21.94ZM6 8.52C7.37 8.52 8.22 7.62 8.22 6.49C8.2 5.33 7.37 4.44 6.03 4.44C4.69 4.44 3.81 5.33 3.81 6.48C3.81 7.62 4.66 8.52 5.98 8.52L6 8.52L6 8.52ZM10.14 21.94L14.06 21.94L14.06 15.35C14.06 15 14.09 14.65 14.19 14.39C14.48 13.69 15.12 12.96 16.21 12.96C17.62 12.96 18.19 14.04 18.19 15.63L18.19 21.94L22.12 21.94L22.12 15.17C22.12 11.55 20.18 9.86 17.6 9.86C15.48 9.86 14.55 11.04 14.04 11.85L14.06 11.85L14.06 10.14L10.14 10.14C10.19 11.25 10.14 21.94 10.14 21.94L10.14 21.94Z" fill="#FFFFFF" fill-opacity="1.000000" fill-rule="nonzero"/>
</svg>
