<svg width="20.583252" height="17.785645" viewBox="0 0 20.5833 17.7856" fill="none" xmlns="http://www.w3.org/2000/svg" xmlns:xlink="http://www.w3.org/1999/xlink">
	<desc>
			Created with Pixso.
	</desc>
	<defs>
		<filter id="filter_141_61_dd" x="0.000000" y="0.000000" width="20.583252" height="17.785645" filterUnits="userSpaceOnUse" color-interpolation-filters="sRGB">
			<feFlood flood-opacity="0" result="BackgroundImageFix"/>
			<feColorMatrix in="SourceAlpha" type="matrix" values="0 0 0 0 0 0 0 0 0 0 0 0 0 0 0 0 0 0 127 0" result="hardAlpha"/>
			<feOffset dx="1" dy="1"/>
			<feGaussianBlur stdDeviation="0"/>
			<feComposite in2="hardAlpha" operator="out" k2="-1" k3="1"/>
			<feColorMatrix type="matrix" values="0 0 0 0 1 0 0 0 0 1 0 0 0 0 1 0 0 0 1 0"/>
			<feBlend mode="normal" in2="BackgroundImageFix" result="effect_dropShadow_1"/>
			<feBlend mode="normal" in="SourceGraphic" in2="effect_dropShadow_1" result="shape"/>
		</filter>
	</defs>
	<g filter="url(#filter_141_61_dd)">
		<path id="Vector" d="M1.2 7.31C1.2 7.31 9.86 3.62 12.86 2.32C14.01 1.8 17.92 0.14 17.92 0.14C17.92 0.14 19.72 -0.58 19.57 1.18C19.52 1.91 19.12 4.45 18.72 7.2C18.12 11.09 17.47 15.35 17.47 15.35C17.47 15.35 17.37 16.54 16.52 16.75C15.66 16.96 14.26 16.02 14.01 15.82C13.81 15.66 10.26 13.33 8.96 12.18C8.61 11.87 8.2 11.25 9.01 10.52C10.81 8.81 12.96 6.68 14.26 5.33C14.86 4.71 15.46 3.26 12.96 5.02C9.41 7.56 5.9 9.95 5.9 9.95C5.9 9.95 5.1 10.47 3.6 10C2.1 9.54 0.34 8.91 0.34 8.91C0.34 8.91 -0.86 8.14 1.2 7.31Z" fill="#373737" fill-opacity="1.000000" fill-rule="evenodd"/>
	</g>
</svg>
