<svg width="36.479996" height="25.599609" viewBox="0 0 36.48 25.5996" fill="none" xmlns="http://www.w3.org/2000/svg" xmlns:xlink="http://www.w3.org/1999/xlink">
	<desc>
			Created with Pixso.
	</desc>
	<defs/>
	<path id="Vector" d="M35.71 3.99C35.3 2.42 34.06 1.18 32.49 0.76C29.64 0 18.24 0 18.24 0C18.24 0 6.83 0 3.98 0.76C2.42 1.18 1.18 2.41 0.76 3.99C0 6.84 0 12.79 0 12.79C0 12.79 0 18.75 0.76 21.6C1.17 23.17 2.41 24.41 3.98 24.83C6.83 25.59 18.24 25.59 18.24 25.59C18.24 25.59 29.64 25.59 32.49 24.83C34.06 24.41 35.29 23.17 35.71 21.6C36.48 18.75 36.48 12.79 36.48 12.79C36.48 12.79 36.48 6.84 35.71 3.99Z" fill="#FF3000" fill-opacity="1.000000" fill-rule="evenodd"/>
	<path id="Vector" d="M14.59 18.28L24.07 12.79L14.59 7.31L14.59 18.28Z" fill="#FFFFFF" fill-opacity="1.000000" fill-rule="nonzero"/>
</svg>
