<svg width="143.673462" height="32.000000" viewBox="0 0 143.673 32" fill="none" xmlns="http://www.w3.org/2000/svg" xmlns:xlink="http://www.w3.org/1999/xlink">
	<desc>
			Created with Pixso.
	</desc>
	<defs>
		<clipPath id="clip115_1965">
			<rect id="Simplification" rx="-0.500000" width="142.673462" height="31.000000" transform="translate(0.500000 0.500000)" fill="white" fill-opacity="0"/>
		</clipPath>
	</defs>
	<g opacity="0.600000">
		<g clip-path="url(#clip115_1965)">
			<path id="Vector" d="M127.42 14.12L127.5 14.34C127.73 15.14 127.78 15.91 127.78 16.74L127.78 17.05C127.78 17.57 127.73 17.93 127.59 18.44L116.24 18.53C116.5 19.48 116.74 20.33 117.62 20.87C118.77 21.47 120.16 21.61 121.42 21.25C121.86 21.08 122.3 20.89 122.55 20.47C122.69 20.32 122.69 20.32 122.9 20.28L123.15 20.28L123.44 20.28L123.75 20.29L124.07 20.29C124.34 20.29 124.62 20.3 124.9 20.3C125.16 20.3 125.42 20.3 125.69 20.31L125.75 20.31C126.31 20.31 126.87 20.31 127.42 20.32C127.27 21.55 126.45 22.47 125.53 23.24C123.36 24.83 120.38 25.01 117.8 24.63C116.32 24.38 114.92 23.87 113.79 22.85L113.62 22.7C112.77 21.9 112.26 20.84 111.91 19.75L111.83 20.04C111.59 20.8 111.35 21.48 110.85 22.12L110.69 22.33C109.45 23.81 107.55 24.5 105.67 24.71C103.19 24.89 100.35 24.79 98.34 23.13C97.62 22.51 97.06 21.83 96.62 20.98L96.54 20.82C96.31 20.36 96.22 19.95 96.08 19.42L96 24.65L91.83 24.65L91.59 23.18L91.27 23.39C89.21 24.76 86.87 25.17 84.41 24.72C82.55 24.29 80.96 23.34 79.91 21.71C78.79 19.77 78.61 17.2 79.14 15.04C79.32 14.51 79.54 13.99 79.75 13.46L75.91 13.38L75.91 24.48L71.42 24.48L71.42 13.38L68.73 13.38L68.73 24.48L64.48 24.48L64.24 23.1C63.98 23.23 63.77 23.36 63.54 23.53C61.74 24.8 59.23 24.98 57.1 24.64C55.71 24.39 54.45 23.78 53.38 22.85L53.23 22.72C52.16 21.75 51.69 20.36 51.41 18.98C51.37 18.71 51.37 18.71 51.26 18.61L51.21 18.87C50.95 20.06 50.58 21.08 49.79 22.04L49.62 22.25C48.32 23.79 46.29 24.52 44.33 24.71C42.89 24.82 41.41 24.82 40 24.48L39.82 24.45C38.03 24.03 36.42 23.05 35.41 21.48C34.82 20.5 34.52 19.49 34.36 18.36L34.34 18.5C33.93 20.46 33.13 22.21 31.41 23.36C28.89 24.91 25.68 25.12 22.84 24.44C21.7 24.15 20.55 23.65 19.67 22.85L19.45 22.66C18.63 21.89 18.11 21.03 17.77 19.95L17.7 19.75C17.65 19.59 17.6 19.42 17.55 19.26L17.54 19.46C17.54 20.09 17.53 20.72 17.53 21.35C17.52 21.68 17.52 22 17.52 22.32C17.5 24.83 17.45 27.28 15.75 29.3L15.64 29.43C15.36 29.78 15.06 30.06 14.7 30.32L14.55 30.43C13.66 31.06 12.64 31.5 11.59 31.75L11.3 31.82C9.59 32.2 7.48 32.18 5.79 31.75L5.63 31.71C4.42 31.4 3.29 30.88 2.36 30.04L2.21 29.9C1.28 29.04 0.85 27.92 0.73 26.69L5.55 26.69L5.87 27.34C6.48 27.99 7.33 28.31 8.21 28.34C9.53 28.36 10.64 28.25 11.68 27.35C12.74 26.23 12.77 24.63 12.81 23.18L12.69 23.29C10.93 24.72 8.64 24.89 6.46 24.71C4.62 24.51 3.01 23.85 1.71 22.53L1.54 22.37C0.1 20.87 -0.05 18.68 -0.03 16.72C-0.01 15.62 0.24 14.62 0.73 13.63L0.83 13.41C1.68 11.71 3.17 10.68 4.92 10.05C7.26 9.33 9.87 9.37 12.06 10.52C12.44 10.74 12.8 10.98 13.14 11.26L13.16 11.12L13.2 10.93L13.24 10.75C13.32 10.45 13.44 10.16 13.55 9.87L17.46 9.87L17.55 15.18L17.95 13.87C18.33 13.15 18.72 12.52 19.26 11.91L19.41 11.74C20.98 10.07 23.44 9.63 25.62 9.54C27.92 9.49 30.43 10.03 32.14 11.65L32.32 11.83L32.48 11.97C33.61 13 34.06 14.55 34.36 16L34.4 15.76C34.74 13.94 35.58 12.2 37.12 11.07C38.89 9.88 41.14 9.43 43.26 9.55L43.44 9.56C45.76 9.7 47.94 10.35 49.58 12.08C50.54 13.2 51 14.5 51.34 15.91L51.4 15.64C51.75 14.04 52.38 12.75 53.55 11.59L53.71 11.42C55.12 10.08 57.22 9.62 59.1 9.55L59.31 9.54C61.04 9.49 62.76 9.88 64.16 10.93L64.16 4.89L68.73 4.89L68.73 9.87L71.42 9.87L71.41 9.29C71.41 9.1 71.41 8.91 71.41 8.72C71.4 8.59 71.4 8.46 71.4 8.33C71.37 6.91 71.58 5.68 72.57 4.59C73.71 3.51 75.37 3.25 76.88 3.25L77.16 3.25C77.45 3.25 77.74 3.25 78.03 3.26C78.23 3.26 78.43 3.26 78.62 3.26C79.09 3.26 79.55 3.26 80.01 3.26L80.08 3.26L80.08 6.69C78.82 6.71 78.82 6.71 78.42 6.72C77.69 6.74 77.09 6.8 76.45 7.18C75.8 7.92 75.96 8.93 75.91 9.87L80.08 9.87L80.16 12.81L80.73 12.08C81.93 10.67 83.79 9.93 85.6 9.72C87.7 9.57 89.56 9.73 91.34 10.93L91.51 11.02L91.83 9.71L96 9.71L96.08 15.1L96.48 13.87C97.25 12.14 98.6 10.93 100.34 10.23C101.48 9.81 102.62 9.62 103.83 9.55L104.08 9.53C106.09 9.48 108.27 9.9 109.87 11.18L110.02 11.29C110.96 12.02 111.63 13.2 111.83 14.36C111.84 14.61 111.84 14.61 111.83 14.77L112 14.77L112.04 14.48C112.24 13.55 112.84 12.69 113.46 12L113.65 11.79C115.2 10.13 117.35 9.66 119.52 9.53C121.8 9.48 124.13 10.03 125.83 11.61C125.98 11.76 126.13 11.92 126.28 12.08C126.76 12.87 127.01 13.32 127.42 14.12ZM116.24 15.75C116.24 15.1 116.54 14.5 116.97 14.02C117.74 13.28 118.7 13.02 119.75 12.96C120.78 12.95 121.82 13.13 122.6 13.86C123.16 14.46 123.34 14.92 123.34 15.75L116.24 15.75ZM4.59 18.29C4.4 16.89 4.55 15.61 5.38 14.44C6.71 12.91 9.17 12.78 10.93 13.57C11.87 14.1 12.46 14.9 12.8 15.92C13.1 17.14 12.92 18.38 12.32 19.47C11.77 20.39 10.95 20.86 9.93 21.13C8.66 21.38 7.23 21.28 6.12 20.57C5.35 20.02 4.77 19.23 4.59 18.29ZM21.87 17.95C21.77 16.59 21.93 15.31 22.82 14.22C23.89 13.09 25.4 13.04 26.85 13.16C27.68 13.29 28.4 13.69 28.92 14.34L29.06 14.53C29.36 14.94 29.52 15.39 29.65 15.88C29.99 17.27 29.8 18.61 29.06 19.83C28.52 20.62 27.73 21 26.81 21.18C25.48 21.36 24.2 21.2 23.1 20.4C22.41 19.79 21.99 18.86 21.87 17.95ZM38.89 18.32C38.69 16.89 38.81 15.56 39.67 14.36C40.35 13.62 41.21 13.19 42.22 13.13C43.45 13.09 44.66 13.14 45.61 14.01C46.44 14.88 46.76 16.02 46.8 17.2C46.74 18.41 46.4 19.57 45.52 20.43L45.3 20.57C45.13 20.68 44.97 20.78 44.79 20.88C43.74 21.33 42.39 21.39 41.3 21.06C40.31 20.67 39.63 20.13 39.18 19.14L39.1 18.93C39.01 18.73 38.95 18.54 38.89 18.32ZM55.83 17.79C55.71 16.55 55.95 15.32 56.75 14.33C57.71 13.34 58.96 13.06 60.3 13.11C61.32 13.18 62.43 13.49 63.13 14.28L63.26 14.44C63.72 15.02 63.96 15.61 64.11 16.32C64.33 17.58 64.04 18.74 63.33 19.8C62.71 20.61 61.76 21 60.78 21.18C59.52 21.35 58.26 21.18 57.21 20.44C56.36 19.77 55.98 18.84 55.83 17.79ZM100.4 18.04C100.3 16.74 100.37 15.33 101.22 14.28C102.24 13.19 103.73 12.96 105.16 13.18C105.89 13.36 106.53 13.72 106.93 14.36L107.1 14.85L111.91 14.85C111.9 14.95 111.89 15.04 111.87 15.14C111.81 15.54 111.75 15.93 111.73 16.33L111.73 16.61L111.73 16.91L111.73 17.22L111.73 17.54L111.73 17.85C111.73 18.04 111.74 18.24 111.75 18.44L111.91 19.51L107.1 19.51C107.06 19.74 107.05 19.83 107.02 19.91C107 19.95 106.97 20 106.93 20.06C106.34 20.74 105.7 21.1 104.81 21.22C103.69 21.29 102.53 21.21 101.61 20.51C100.89 19.85 100.52 18.99 100.4 18.04ZM83.34 17.79C83.24 16.61 83.5 15.42 84.24 14.48C85.12 13.54 86.31 13.15 87.6 13.2C88.65 13.3 89.75 13.54 90.48 14.36L90.61 14.53C91.2 15.27 91.48 16.12 91.53 17.06C91.55 18.29 91.24 19.38 90.38 20.29C89.59 21.02 88.64 21.31 87.57 21.33L87.37 21.33C86.31 21.33 85.39 21.05 84.53 20.42C83.78 19.73 83.47 18.77 83.34 17.79Z" fill="#373737" fill-opacity="1.000000" fill-rule="evenodd"/>
			<path id="Exclude" d="M134.612 -0.081543C129.698 -0.081543 125.714 3.90234 125.714 8.81641C125.714 13.7305 129.698 17.7144 134.612 17.7144C139.527 17.7144 143.51 13.7305 143.51 8.81641C143.51 3.90234 139.527 -0.081543 134.612 -0.081543ZM134.567 4.99854C134.584 4.4209 134.584 4.05273 134.204 3.59229C133.728 3.43311 133.521 3.5376 133.184 3.88281C132.686 4.52393 132.56 5.15283 132.653 5.95947C132.775 6.271 132.94 6.43359 133.225 6.6123C133.328 6.61523 133.392 6.6167 133.453 6.604C133.552 6.58301 133.642 6.5249 133.878 6.37256C134.291 5.99414 134.501 5.55273 134.567 4.99854ZM137.878 4.57178C138.116 4.74414 138.182 4.79883 138.286 5.06152C138.382 5.74512 138.337 6.42871 137.959 7.02051C137.483 7.57275 137.483 7.57275 137.093 7.61523C136.898 7.59229 136.898 7.59229 136.719 7.4541C136.401 7.04785 136.363 6.64844 136.372 6.14551C136.447 5.59619 136.694 5.08691 137.101 4.70996C137.384 4.51953 137.544 4.51221 137.878 4.57178ZM129.551 7.18408C129.276 7.09229 129.276 7.09229 128.653 6.93896C128.286 7.67334 128.362 8.65332 128.437 9.44385C128.631 10.9634 129.321 12.5239 130.533 13.5073L130.694 13.6328C131.948 14.7104 133.4 15.0854 135.024 15.0278C136.493 14.9624 138.036 14.2363 139.038 13.1489L139.184 12.98C139.916 12.1665 140.518 11.2236 140.653 10.1226L139.755 9.95947L139.592 10.3677C138.864 11.9585 137.966 13.0186 136.327 13.7144C135.305 14.1177 133.823 14.1655 132.8 13.7466L132.572 13.6328C131.995 13.3462 131.42 13.0493 130.986 12.5625L130.857 12.4082C130.745 12.2856 130.635 12.1611 130.526 12.0361C129.488 10.7114 129.355 9.10986 129.51 7.5L129.551 7.18408Z" clip-rule="evenodd" fill="#373737" fill-opacity="1.000000" fill-rule="evenodd"/>
		</g>
	</g>
</svg>
