<svg width="24.000000" height="24.000000" viewBox="0 0 24 24" fill="none" xmlns="http://www.w3.org/2000/svg" xmlns:xlink="http://www.w3.org/1999/xlink">
	<desc>
			Created with Pixso.
	</desc>
	<defs>
		<clipPath id="clip32_836">
			<rect id="lets-icons:book-open-duotone" rx="-0.500000" width="23.000000" height="23.000000" transform="translate(0.500000 0.500000)" fill="white" fill-opacity="0"/>
		</clipPath>
	</defs>
	<rect id="lets-icons:book-open-duotone" rx="-0.500000" width="23.000000" height="23.000000" transform="translate(0.500000 0.500000)" fill="#FFFFFF" fill-opacity="0"/>
	<g clip-path="url(#clip32_836)">
		<path id="Vector" d="M5 17L9 17C9.79 17 10.55 17.31 11.12 17.87C11.68 18.44 12 19.2 12 20L12 10C12 7.17 12 5.75 11.12 4.87C10.24 4 8.82 4 6 4L5 4C4.05 4 3.58 4 3.29 4.29C3 4.58 3 5.05 3 6L3 15C3 15.94 3 16.41 3.29 16.7C3.58 17 4.05 17 5 17Z" fill="#9BC5E9" fill-opacity="0.300000" fill-rule="nonzero"/>
		<path id="Vector" d="M19 17L16 17C15.2 17 14.44 17.31 13.87 17.87C13.31 18.44 13 19.2 13 20L13 10C13 7.17 13 5.75 13.87 4.87C14.75 4 16.17 4 19 4C19.94 4 20.41 4 20.7 4.29C21 4.58 21 5.05 21 6L21 15C21 15.94 21 16.41 20.7 16.7C20.41 17 19.94 17 19 17ZM5 4.14C5 4.11 5.01 4.07 5.04 4.04C5.07 4.01 5.11 4 5.15 4L7.84 4C7.88 4 7.92 4.01 7.95 4.04C7.98 4.07 8 4.11 8 4.14L8 8.39C8 8.44 7.98 8.49 7.95 8.53C7.93 8.57 7.89 8.6 7.84 8.62C7.8 8.64 7.74 8.65 7.7 8.64C7.65 8.63 7.6 8.6 7.57 8.57L6.67 7.67C6.65 7.65 6.62 7.63 6.59 7.62C6.56 7.6 6.53 7.6 6.5 7.6C6.46 7.6 6.43 7.6 6.4 7.62C6.37 7.63 6.34 7.65 6.32 7.67L5.42 8.57C5.39 8.6 5.34 8.63 5.29 8.64C5.25 8.65 5.19 8.64 5.15 8.62C5.1 8.6 5.06 8.57 5.04 8.53C5.01 8.49 4.99 8.44 5 8.39L5 4.14Z" fill="#9BC5E9" fill-opacity="1.000000" fill-rule="nonzero"/>
	</g>
</svg>
