<svg width="18.000000" height="18.000000" viewBox="0 0 18 18" fill="none" xmlns="http://www.w3.org/2000/svg" xmlns:xlink="http://www.w3.org/1999/xlink">
	<desc>
			Created with Pixso.
	</desc>
	<defs/>
	<path id="Vector" d="M7.6 13.2L14.64 6.14L13.25 4.75L7.6 10.39L4.75 7.54L3.35 8.95L7.6 13.2ZM2 18C1.45 18 0.97 17.8 0.58 17.41C0.19 17.02 0 16.55 0 16L0 2C0 1.45 0.19 0.97 0.58 0.58C0.97 0.19 1.45 0 2 0L16 0C16.54 0 17.02 0.19 17.41 0.58C17.8 0.97 18 1.45 18 2L18 16C18 16.54 17.8 17.02 17.41 17.41C17.02 17.8 16.55 18 16 18L2 18Z" fill="#9BC5E9" fill-opacity="0.800000" fill-rule="nonzero"/>
</svg>
