<svg width="20.000000" height="22.003906" viewBox="0 0 20 22.0039" fill="none" xmlns="http://www.w3.org/2000/svg" xmlns:xlink="http://www.w3.org/1999/xlink">
	<desc>
			Created with Pixso.
	</desc>
	<defs/>
	<path id="Vector" d="M14 21C12.93 19.75 11.53 19 10 19C8.46 19 7.06 19.75 6 21M6.33 12.51C5.54 12.73 4.91 13.74 5 14.56C5.04 14.86 5.3 15 5.58 15L14.41 15C14.69 15 14.95 14.86 14.99 14.56C15.08 13.74 14.45 12.73 13.66 12.51C12.46 12.18 11.23 12.01 10 12C8.73 12 7.39 12.22 6.33 12.51ZM19 9C18.46 9 17.96 9.21 17.58 9.58C17.21 9.96 17 10.46 17 11L17 12C17 12.53 16.78 13.03 16.41 13.41C16.03 13.78 15.53 14 15 14M1 9C1.53 9 2.03 9.21 2.41 9.58C2.78 9.96 3 10.46 3 11L3 12C3 12.53 3.21 13.03 3.58 13.41C3.96 13.78 4.46 14 5 14M10 15L10 21M9.18 9C7.77 9 7.07 9 6.56 8.57C6.06 8.15 5.89 7.42 5.55 5.97C5.01 3.68 4.75 2.53 5.31 1.77C5.87 1 6.97 1 9.18 1L10.81 1C13.02 1 14.12 1 14.68 1.77C15.24 2.53 14.98 3.68 14.44 5.97C14.1 7.42 13.93 8.15 13.43 8.57C12.92 9 12.22 9 10.81 9L9.18 9ZM10 9L10 12" stroke="#9BC5E9" stroke-opacity="1.000000" stroke-width="2.000000" stroke-linejoin="round" stroke-linecap="round"/>
</svg>
