<svg width="24.000000" height="24.000000" viewBox="0 0 24 24" fill="none" xmlns="http://www.w3.org/2000/svg" xmlns:xlink="http://www.w3.org/1999/xlink">
	<desc>
			Created with Pixso.
	</desc>
	<defs>
		<clipPath id="clip42_1094">
			<rect id="ph:video-light" rx="-0.500000" width="23.000000" height="23.000000" transform="translate(0.500000 0.500000)" fill="white" fill-opacity="0"/>
		</clipPath>
	</defs>
	<rect id="ph:video-light" rx="-0.500000" width="23.000000" height="23.000000" transform="translate(0.500000 0.500000)" fill="#FFFFFF" fill-opacity="0"/>
	<g clip-path="url(#clip42_1094)">
		<path id="Vector 707" d="M21.66 4C22.21 4 22.66 4.44 22.66 5L22.66 15.89C22.66 16.44 22.21 16.89 21.66 16.89L2.66 16.89C2.11 16.89 1.66 16.44 1.66 15.89L1.66 5C1.66 4.44 2.11 4 2.66 4L21.66 4ZM10.41 12.09C10.41 12.89 11.3 13.36 11.97 12.92L14.42 11.27C15.01 10.88 15.01 10.01 14.42 9.61L11.97 7.97C11.3 7.52 10.41 8 10.41 8.8L10.41 12.09ZM1.66 21L22.66 21" stroke="#9BC5E9" stroke-opacity="1.000000" stroke-width="2.000000" stroke-linecap="round"/>
	</g>
</svg>
