<svg width="190.807434" height="24.000000" viewBox="0 0 190.807 24" fill="none" xmlns="http://www.w3.org/2000/svg" xmlns:xlink="http://www.w3.org/1999/xlink">
	<desc>
			Created with Pixso.
	</desc>
	<defs/>
	<g opacity="0.600000">
		<path id="Vector 709" d="M0 23.92L13.78 0L27.57 23.92L7.82 17.29L13.78 3.35L19.9 17.29L16.62 18.11L14.31 17.29L17.88 16.62L13.78 4.02L9.46 16.32L23.18 20.49L13.78 0.81L4.62 20.49L10.58 18.7L13.11 19.75L0 23.92ZM36.67 24L45.54 4.91L54.33 24L51.8 24L45.54 10.28L39.27 24L36.67 24ZM57.54 24L59.85 4.91L67.45 17.73L75.13 4.91L77.44 24L75.13 24L73.56 11.1L67.45 22.28L61.26 11.1L59.85 24L57.54 24ZM81.61 24L90.4 4.91L99.27 24L96.74 24L90.4 10.21L84.22 24L81.61 24ZM102.7 24L112.77 7.15L103.3 7.15L103.3 4.91L116.64 4.91L106.58 21.83L116.12 21.83L116.12 24L102.7 24ZM121.34 24L121.34 4.91L123.65 4.91L123.65 24L121.34 24ZM129.98 24L129.98 4.91L144.44 18.63L144.44 4.91L146.68 4.91L146.68 24L132.29 10.5L132.29 24L129.98 24ZM152.94 18.63L152.94 4.91L155.25 4.91L155.25 18.63C155.25 19.45 155.85 21.91 159.35 21.91C162.85 21.91 163.52 19.15 163.52 18.63L163.52 4.91L165.91 4.91L165.91 18.63C165.91 19.3 164.72 24 159.35 24C153.98 24 152.94 19.52 152.94 18.63ZM170.9 24L173.29 4.91L180.82 17.73L188.57 4.91L190.8 24L188.57 24L187.08 11.1L180.82 22.36L174.63 11.1L173.29 24L170.9 24Z" fill="#373737" fill-opacity="1.000000" fill-rule="evenodd"/>
	</g>
</svg>
