<svg width="24.000000" height="24.000000" viewBox="0 0 24 24" fill="none" xmlns="http://www.w3.org/2000/svg" xmlns:xlink="http://www.w3.org/1999/xlink">
	<desc>
			Created with Pixso.
	</desc>
	<defs>
		<clipPath id="clip117_1118">
			<rect id="material-symbols:dashboard-customize-rounded" rx="0.000000" width="23.000000" height="23.000000" transform="translate(0.500000 0.500000)" fill="white" fill-opacity="0"/>
		</clipPath>
	</defs>
	<rect id="material-symbols:dashboard-customize-rounded" rx="0.000000" width="23.000000" height="23.000000" transform="translate(0.500000 0.500000)" fill="#FFFFFF" fill-opacity="0"/>
	<g clip-path="url(#clip117_1118)">
		<path id="Vector" d="M4 11C3.71 11 3.47 10.9 3.28 10.71C3.09 10.52 3 10.28 3 10L3 4C3 3.71 3.09 3.47 3.28 3.28C3.47 3.09 3.71 3 4 3L10 3C10.28 3 10.52 3.09 10.71 3.28C10.9 3.47 11 3.71 11 4L11 10C11 10.28 10.9 10.52 10.71 10.71C10.52 10.9 10.28 11 10 11L4 11ZM14 11C13.71 11 13.47 10.9 13.28 10.71C13.09 10.52 13 10.28 13 10L13 4C13 3.71 13.09 3.47 13.28 3.28C13.48 3.09 13.71 3 14 3L20 3C20.28 3 20.52 3.09 20.71 3.28C20.9 3.47 21 3.71 21 4L21 10C21 10.28 20.9 10.52 20.71 10.71C20.52 10.9 20.28 11 20 11L14 11ZM4 21C3.71 21 3.47 20.9 3.28 20.71C3.09 20.52 3 20.28 3 20L3 14C3 13.71 3.09 13.47 3.28 13.28C3.47 13.09 3.71 13 4 13L10 13C10.28 13 10.52 13.09 10.71 13.28C10.9 13.48 11 13.71 11 14L11 20C11 20.28 10.9 20.52 10.71 20.71C10.52 20.9 10.28 21 10 21L4 21ZM17 21C16.71 21 16.47 20.9 16.28 20.71C16.09 20.52 16 20.28 16 20L16 18L13.97 18C13.69 18 13.45 17.9 13.27 17.71C13.09 17.52 13 17.28 13 17C13 16.71 13.09 16.48 13.28 16.28C13.48 16.09 13.71 16 14 16L16 16L16 13.97C16 13.69 16.09 13.45 16.28 13.27C16.48 13.09 16.71 13 17 13C17.28 13 17.52 13.09 17.71 13.28C17.9 13.48 18 13.71 18 14L18 16L20.02 16C20.3 16 20.54 16.09 20.72 16.28C20.9 16.48 21 16.71 21 17C21 17.28 20.9 17.52 20.71 17.71C20.52 17.9 20.28 18 20 18L18 18L18 20.02C18 20.3 17.9 20.54 17.71 20.72C17.52 20.9 17.28 21 17 21Z" fill="#9BC5E9" fill-opacity="1.000000" fill-rule="nonzero"/>
	</g>
</svg>
