<svg width="24.000000" height="24.000000" viewBox="0 0 24 24" fill="none" xmlns="http://www.w3.org/2000/svg" xmlns:xlink="http://www.w3.org/1999/xlink">
	<desc>
			Created with Pixso.
	</desc>
	<defs>
		<clipPath id="clip117_1130">
			<rect id="eos-icons:modified-date" rx="0.000000" width="23.000000" height="23.000000" transform="translate(0.500000 0.500000)" fill="white" fill-opacity="0"/>
		</clipPath>
	</defs>
	<rect id="eos-icons:modified-date" rx="0.000000" width="23.000000" height="23.000000" transform="translate(0.500000 0.500000)" fill="#FFFFFF" fill-opacity="0"/>
	<g clip-path="url(#clip117_1130)">
		<path id="Vector" d="M19.2 3.81L18.29 3.81L18.29 2L16.5 2L16.5 3.81L7.5 3.81L7.5 2L5.7 2L5.7 3.81L4.79 3.81C4.32 3.81 3.86 4 3.52 4.35C3.18 4.69 3 5.15 3 5.63L3 20.18C3 20.66 3.18 21.12 3.52 21.46C3.86 21.8 4.32 22 4.79 22L19.2 22C19.67 22 20.13 21.8 20.47 21.46C20.81 21.12 21 20.66 21 20.18L21 5.63C21 5.15 20.81 4.69 20.47 4.35C20.13 4 19.67 3.81 19.2 3.81ZM7.97 20.18L4.79 20.18L4.79 16.97L13.26 8.41L16.44 11.62L7.97 20.18ZM18.94 9.1L17.29 10.77L14.11 7.56L15.78 5.89C15.85 5.81 15.94 5.74 16.05 5.7C16.15 5.65 16.26 5.63 16.37 5.63C16.48 5.63 16.59 5.65 16.69 5.7C16.79 5.74 16.89 5.81 16.96 5.89L18.94 7.89C19.02 7.97 19.08 8.06 19.13 8.16C19.17 8.27 19.19 8.38 19.19 8.49C19.19 8.6 19.17 8.71 19.13 8.82C19.08 8.92 19.02 9.02 18.94 9.1Z" fill="#9BC5E9" fill-opacity="1.000000" fill-rule="nonzero"/>
	</g>
</svg>
