<svg width="24.000000" height="24.000000" viewBox="0 0 24 24" fill="none" xmlns="http://www.w3.org/2000/svg" xmlns:xlink="http://www.w3.org/1999/xlink">
	<desc>
			Created with Pixso.
	</desc>
	<defs>
		<clipPath id="clip117_1124">
			<rect id="mdi:feedback" rx="0.000000" width="23.000000" height="23.000000" transform="translate(0.500000 0.500000)" fill="white" fill-opacity="0"/>
		</clipPath>
	</defs>
	<rect id="mdi:feedback" rx="0.000000" width="23.000000" height="23.000000" transform="translate(0.500000 0.500000)" fill="#FFFFFF" fill-opacity="0"/>
	<g clip-path="url(#clip117_1124)">
		<path id="Vector" d="M20 2L4 2C2.89 2 2 2.89 2 4L2 16C2 17.1 2.89 18 4 18L8 18L8 21C8 21.6 8.39 22 9 22L9.5 22C9.7 22 10 21.89 10.2 21.7L13.9 18L20 18C21.1 18 22 17.1 22 16L22 4C22 2.89 21.1 2 20 2ZM11 13L7 13L7 8.79L8.3 6L10.3 6L8.89 9L11 9L11 13ZM17 13L13 13L13 8.79L14.3 6L16.29 6L14.9 9L17 9L17 13Z" fill="#9BC5E9" fill-opacity="1.000000" fill-rule="nonzero"/>
	</g>
</svg>
