<svg width="24.000000" height="24.000000" viewBox="0 0 24 24" fill="none" xmlns="http://www.w3.org/2000/svg" xmlns:xlink="http://www.w3.org/1999/xlink">
	<desc>
			Created with Pixso.
	</desc>
	<defs>
		<clipPath id="clip117_1128">
			<rect id="bxs:wallet" rx="0.000000" width="23.000000" height="23.000000" transform="translate(0.500000 0.500000)" fill="white" fill-opacity="0"/>
		</clipPath>
	</defs>
	<rect id="bxs:wallet" rx="0.000000" width="23.000000" height="23.000000" transform="translate(0.500000 0.500000)" fill="#FFFFFF" fill-opacity="0"/>
	<g clip-path="url(#clip117_1128)">
		<path id="Vector" d="M20 7L20 5C20 3.89 19.1 3 18 3L5 3C3.34 3 2 4.34 2 6L2 18C2 20.2 3.79 21 5 21L20 21C21.1 21 22 20.1 22 19L22 9C22 7.89 21.1 7 20 7ZM18 16L16 16L16 12L18 12L18 16ZM5 7C4.74 6.98 4.49 6.87 4.32 6.69C4.14 6.5 4.04 6.25 4.04 6C4.04 5.74 4.14 5.49 4.32 5.3C4.49 5.12 4.74 5.01 5 5L18 5L18 7L5 7Z" fill="#9BC5E9" fill-opacity="1.000000" fill-rule="nonzero"/>
	</g>
</svg>
