<svg width="60.000000" height="32.000000" viewBox="0 0 60 32" fill="none" xmlns="http://www.w3.org/2000/svg" xmlns:xlink="http://www.w3.org/1999/xlink">
	<desc>
			Created with Pixso.
	</desc>
	<defs>
		<clipPath id="clip54_6408">
			<rect id="ph:star-fill" rx="-0.500000" width="15.000000" height="15.000000" transform="translate(36.500000 8.500000)" fill="white" fill-opacity="0"/>
		</clipPath>
	</defs>
	<rect id="Frame 427322407" rx="7.500000" width="59.000000" height="31.000000" transform="translate(0.500000 0.500000)" fill="#F8F9FA" fill-opacity="1.000000"/>
	<g opacity="0.600000">
		<path id="Products" d="M30.34 16.18C30.34 19.98 28.86 22.16 26.29 22.16C23.72 22.16 22.24 19.98 22.24 16.18C22.24 12.41 23.74 10.2 26.29 10.2C28.84 10.2 30.34 12.41 30.34 16.18ZM16.68 18.29C16.68 20.52 15.05 22.16 12.83 22.16C10.83 22.16 9.31 20.86 9.22 19.08L10.58 19.08C10.69 20.14 11.64 20.91 12.83 20.91C14.27 20.91 15.31 19.81 15.31 18.31C15.31 16.79 14.23 15.67 12.75 15.66C12.03 15.65 11.21 15.9 10.72 16.25L9.41 16.08L10.11 10.36L16.16 10.36L16.16 11.61L11.29 11.61L10.88 15.04L10.95 15.04C11.43 14.66 12.19 14.38 12.97 14.38C15.11 14.38 16.68 16.03 16.68 18.29ZM23.61 16.18C23.61 19.21 24.6 20.91 26.29 20.91C27.98 20.91 28.97 19.21 28.97 16.18C28.97 13.16 27.97 11.43 26.29 11.43C24.61 11.43 23.61 13.16 23.61 16.18ZM20.52 21.06C20.52 21.62 20.06 22.08 19.49 22.08C18.93 22.08 18.47 21.62 18.47 21.06C18.47 20.5 18.93 20.04 19.49 20.04C20.06 20.04 20.52 20.5 20.52 21.06Z" fill="#373737" fill-opacity="1.000000" fill-rule="evenodd"/>
	</g>
	<rect id="ph:star-fill" rx="-0.500000" width="15.000000" height="15.000000" transform="translate(36.500000 8.500000)" fill="#FFFFFF" fill-opacity="0"/>
	<g clip-path="url(#clip54_6408)">
		<path id="Vector" d="M50.64 15.17L47.83 17.6L48.68 21.23C48.73 21.43 48.72 21.63 48.65 21.82C48.58 22.01 48.45 22.18 48.29 22.3C48.12 22.42 47.93 22.48 47.73 22.49C47.52 22.5 47.32 22.45 47.15 22.34L43.99 20.4L40.84 22.34C40.66 22.45 40.46 22.5 40.26 22.49C40.06 22.48 39.86 22.41 39.7 22.3C39.54 22.18 39.41 22.01 39.34 21.82C39.27 21.63 39.26 21.43 39.31 21.23L40.17 17.6L37.36 15.17C37.2 15.04 37.09 14.87 37.04 14.67C36.98 14.48 36.99 14.27 37.05 14.08C37.11 13.89 37.23 13.72 37.39 13.59C37.54 13.46 37.74 13.39 37.94 13.37L41.62 13.07L43.05 9.63C43.12 9.44 43.26 9.28 43.42 9.17C43.59 9.06 43.79 9 43.99 9C44.2 9 44.39 9.06 44.56 9.17C44.73 9.28 44.86 9.44 44.94 9.63L46.36 13.07L50.05 13.37C50.25 13.39 50.44 13.46 50.6 13.59C50.76 13.72 50.88 13.89 50.94 14.08C51 14.27 51.01 14.48 50.95 14.67C50.9 14.87 50.79 15.04 50.63 15.17L50.64 15.17Z" fill="#FFC56F" fill-opacity="1.000000" fill-rule="nonzero"/>
	</g>
</svg>
