<svg width="24.000000" height="24.000000" viewBox="0 0 24 24" fill="none" xmlns="http://www.w3.org/2000/svg" xmlns:xlink="http://www.w3.org/1999/xlink">
	<desc>
			Created with Pixso.
	</desc>
	<defs>
		<clipPath id="clip54_6881">
			<rect id="uim:briefcase" rx="0.000000" width="23.000000" height="23.000000" transform="translate(0.500000 0.500000)" fill="white" fill-opacity="0"/>
		</clipPath>
	</defs>
	<rect id="uim:briefcase" rx="0.000000" width="23.000000" height="23.000000" transform="translate(0.500000 0.500000)" fill="#FFFFFF" fill-opacity="0"/>
	<g clip-path="url(#clip54_6881)">
		<path id="Vector" d="M10 6L10 5L14 5L14 6L16 6L16 5C16 4.46 15.78 3.96 15.41 3.58C15.03 3.21 14.53 3 14 3L10 3C9.46 3 8.96 3.21 8.58 3.58C8.21 3.96 8 4.46 8 5L8 6L10 6Z" fill="#9BC5E9" fill-opacity="1.000000" fill-rule="nonzero"/>
		<g opacity="0.250000">
			<path id="Vector" d="M9 15C8.73 15 8.48 14.89 8.29 14.7C8.1 14.51 8 14.26 8 14L8 12C8 11.73 8.1 11.48 8.29 11.29C8.48 11.1 8.73 11 9 11C9.26 11 9.51 11.1 9.7 11.29C9.89 11.48 10 11.73 10 12L10 14C10 14.26 9.89 14.51 9.7 14.7C9.51 14.89 9.26 15 9 15ZM15 15C14.73 15 14.48 14.89 14.29 14.7C14.1 14.51 14 14.26 14 14L14 12C14 11.73 14.1 11.48 14.29 11.29C14.48 11.1 14.73 11 15 11C15.26 11 15.51 11.1 15.7 11.29C15.89 11.48 16 11.73 16 12L16 14C16 14.26 15.89 14.51 15.7 14.7C15.51 14.89 15.26 15 15 15Z" fill="#9BC5E9" fill-opacity="1.000000" fill-rule="nonzero"/>
		</g>
		<g opacity="0.300000">
			<path id="Vector" d="M20 6L4 6C3.46 6 2.96 6.21 2.58 6.58C2.21 6.96 2 7.46 2 8L2 11C2 11.53 2.21 12.03 2.58 12.41C2.96 12.78 3.46 13 4 13L8 13L8 12C8 11.73 8.1 11.48 8.29 11.29C8.48 11.1 8.73 11 9 11C9.26 11 9.51 11.1 9.7 11.29C9.89 11.48 10 11.73 10 12L10 13L14 13L14 12C14 11.73 14.1 11.48 14.29 11.29C14.48 11.1 14.73 11 15 11C15.26 11 15.51 11.1 15.7 11.29C15.89 11.48 16 11.73 16 12L16 13L20 13C20.53 13 21.03 12.78 21.41 12.41C21.78 12.03 22 11.53 22 11L22 8C22 7.46 21.78 6.96 21.41 6.58C21.03 6.21 20.53 6 20 6Z" fill="#9BC5E9" fill-opacity="1.000000" fill-rule="nonzero"/>
		</g>
		<path id="Vector" d="M20 13L16 13L16 14C16 14.26 15.89 14.51 15.7 14.7C15.51 14.89 15.26 15 15 15C14.73 15 14.48 14.89 14.29 14.7C14.1 14.51 14 14.26 14 14L14 13L10 13L10 14C10 14.26 9.89 14.51 9.7 14.7C9.51 14.89 9.26 15 9 15C8.73 15 8.48 14.89 8.29 14.7C8.1 14.51 8 14.26 8 14L8 13L4 13C3.46 13 2.96 12.78 2.58 12.41C2.21 12.03 2 11.53 2 11L2 19C2 19.53 2.21 20.03 2.58 20.41C2.96 20.78 3.46 21 4 21L20 21C20.53 21 21.03 20.78 21.41 20.41C21.78 20.03 22 19.53 22 19L22 11C22 11.53 21.78 12.03 21.41 12.41C21.03 12.78 20.53 13 20 13Z" fill="#9BC5E9" fill-opacity="1.000000" fill-rule="nonzero"/>
	</g>
</svg>
