<svg width="406.000000" height="241.000000" viewBox="0 0 406 241" fill="none" xmlns="http://www.w3.org/2000/svg" xmlns:xlink="http://www.w3.org/1999/xlink">
	<desc>
			Created with Pixso.
	</desc>
	<defs>
		<clipPath id="clip117_4177">
			<rect id="Frame 2085662521" rx="23.500000" width="405.000000" height="240.000000" transform="translate(0.500000 0.500000)" fill="white" fill-opacity="0"/>
		</clipPath>
		<linearGradient x1="145.431366" y1="162.117859" x2="67.573738" y2="296.971222" id="paint_linear_117_4188_0" gradientUnits="userSpaceOnUse">
			<stop stop-color="#9BC5E9" stop-opacity="0.101961"/>
			<stop offset="1.000000" stop-color="#9BC5E9" stop-opacity="0.000000"/>
		</linearGradient>
		<linearGradient x1="311.431366" y1="73.117859" x2="233.573730" y2="207.971222" id="paint_linear_117_4190_0" gradientUnits="userSpaceOnUse">
			<stop stop-color="#9BC5E9" stop-opacity="0.101961"/>
			<stop offset="1.000000" stop-color="#9BC5E9" stop-opacity="0.000000"/>
		</linearGradient>
		<linearGradient x1="466.431366" y1="-12.882141" x2="388.573730" y2="121.971222" id="paint_linear_117_4192_0" gradientUnits="userSpaceOnUse">
			<stop stop-color="#9BC5E9" stop-opacity="0.101961"/>
			<stop offset="1.000000" stop-color="#9BC5E9" stop-opacity="0.000000"/>
		</linearGradient>
		<radialGradient gradientTransform="translate(95.1621 138.64) rotate(0) scale(45.6504 45.6231)" cx="0.000000" cy="0.000000" r="1.000000" id="paint_radial_202_51_0" gradientUnits="userSpaceOnUse">
			<stop offset="0.090000" stop-color="#FA8F21"/>
			<stop offset="0.780000" stop-color="#D82D7E"/>
		</radialGradient>
		<radialGradient gradientTransform="translate(111.724 140.205) rotate(0) scale(35.9789 35.9573)" cx="0.000000" cy="0.000000" r="1.000000" id="paint_radial_202_52_0" gradientUnits="userSpaceOnUse">
			<stop offset="0.640000" stop-color="#8C3AAA" stop-opacity="0.000000"/>
			<stop offset="1.000000" stop-color="#8C3AAA"/>
		</radialGradient>
	</defs>
	<g clip-path="url(#clip117_4177)">
		<g opacity="0.800000">
			<rect id="Rectangle 33086" x="0.500000" y="0.500000" rx="24.000000" width="405.000000" height="240.000000" stroke="#EBF6FF" stroke-opacity="1.000000" stroke-width="1.000000"/>
		</g>
		<path id="Vector 706" d="M227.55 244.44L275.31 250.81C292.39 253.09 308.65 259.51 322.67 269.52C366.88 301.09 379.89 361.07 352.72 408.11L347.01 418C314.41 474.47 242.21 493.81 185.74 461.21L-197.55 239.92C-236.46 217.46 -249.79 167.7 -227.33 128.79C-202.88 86.45 -146.88 75.08 -107.86 104.53L-105.33 106.43C-71.87 131.7 -31.47 146.09 10.43 147.68C54.11 149.34 95.7 166.79 127.5 196.79C155.03 222.77 190.03 239.44 227.55 244.44Z" fill="url(#paint_linear_117_4188_0)" fill-opacity="1.000000" fill-rule="evenodd"/>
		<path id="Vector 707" d="M393.55 155.44L441.31 161.81C458.39 164.09 474.65 170.51 488.67 180.52C532.88 212.09 545.89 272.07 518.72 319.11L513.01 329C480.41 385.47 408.21 404.81 351.74 372.21L-31.55 150.92C-70.46 128.46 -83.79 78.7 -61.33 39.79C-36.88 -2.55 19.12 -13.92 58.14 15.53L60.66 17.43C94.13 42.7 134.53 57.09 176.43 58.68C220.11 60.34 261.7 77.79 293.5 107.79C321.03 133.77 356.03 150.44 393.55 155.44Z" fill="url(#paint_linear_117_4190_0)" fill-opacity="1.000000" fill-rule="evenodd"/>
		<path id="Vector 709" d="M548.55 69.44L596.31 75.81C613.39 78.09 629.65 84.51 643.67 94.52C687.88 126.09 700.89 186.07 673.72 233.11L668.01 243C635.41 299.47 563.21 318.81 506.74 286.21L123.45 64.92C84.54 42.46 71.21 -7.3 93.67 -46.21C118.12 -88.55 174.12 -99.92 213.14 -70.47L215.67 -68.57C249.13 -43.3 289.53 -28.91 331.43 -27.32C375.11 -25.66 416.7 -8.21 448.5 21.79C476.03 47.77 511.03 64.44 548.55 69.44Z" fill="url(#paint_linear_117_4192_0)" fill-opacity="1.000000" fill-rule="evenodd"/>
		<path id="Vector" d="M102.17 121C102.17 117.78 104.78 115.17 108 115.17C111.22 115.17 113.83 117.78 113.83 121C113.83 124.21 111.22 126.82 108 126.82C104.78 126.82 102.17 124.21 102.17 121ZM99.02 121C99.02 125.95 103.04 129.97 108 129.97C112.96 129.97 116.97 125.95 116.97 121C116.97 116.04 112.96 112.02 108 112.02C103.04 112.02 99.02 116.04 99.02 121ZM115.23 111.67C115.23 112.08 115.35 112.49 115.59 112.83C115.82 113.18 116.14 113.45 116.53 113.6C116.91 113.76 117.33 113.81 117.74 113.72C118.15 113.64 118.52 113.44 118.81 113.15C119.11 112.86 119.31 112.48 119.39 112.08C119.47 111.67 119.43 111.25 119.27 110.87C119.11 110.48 118.84 110.15 118.5 109.92C118.15 109.69 117.75 109.57 117.33 109.57L117.33 109.57C116.77 109.57 116.24 109.79 115.85 110.18C115.45 110.58 115.23 111.11 115.23 111.67ZM100.93 135.22C99.23 135.14 98.3 134.86 97.69 134.62C96.87 134.3 96.29 133.92 95.67 133.31C95.06 132.7 94.68 132.12 94.37 131.3C94.13 130.69 93.84 129.76 93.76 128.06C93.68 126.22 93.66 125.66 93.66 121C93.66 116.33 93.68 115.78 93.76 113.93C93.84 112.23 94.13 111.31 94.37 110.69C94.68 109.87 95.06 109.29 95.67 108.68C96.29 108.07 96.87 107.69 97.69 107.37C98.3 107.13 99.23 106.85 100.93 106.77C102.78 106.69 103.33 106.67 108 106.67C112.66 106.67 113.22 106.69 115.06 106.77C116.77 106.85 117.69 107.13 118.31 107.37C119.13 107.69 119.71 108.07 120.32 108.68C120.93 109.29 121.31 109.87 121.63 110.69C121.87 111.3 122.15 112.23 122.23 113.93C122.32 115.78 122.33 116.33 122.33 121C122.33 125.66 122.32 126.21 122.23 128.06C122.15 129.76 121.87 130.69 121.63 131.3C121.31 132.12 120.93 132.7 120.32 133.31C119.71 133.92 119.13 134.3 118.31 134.62C117.69 134.86 116.77 135.14 115.06 135.22C113.22 135.3 112.67 135.32 108 135.32C103.33 135.32 102.78 135.3 100.93 135.22ZM100.79 103.63C98.93 103.71 97.65 104.01 96.54 104.44C95.39 104.88 94.42 105.48 93.45 106.45C92.47 107.43 91.88 108.4 91.43 109.55C91 110.66 90.7 111.93 90.62 113.79C90.53 115.65 90.51 116.25 90.51 121C90.51 125.74 90.53 126.34 90.62 128.2C90.7 130.06 91 131.33 91.43 132.44C91.88 133.59 92.47 134.57 93.45 135.54C94.42 136.51 95.39 137.1 96.54 137.55C97.66 137.98 98.93 138.28 100.79 138.36C102.65 138.45 103.25 138.47 108 138.47C112.75 138.47 113.34 138.45 115.21 138.36C117.07 138.28 118.34 137.98 119.45 137.55C120.6 137.1 121.57 136.51 122.55 135.54C123.52 134.57 124.12 133.59 124.56 132.44C125 131.33 125.29 130.06 125.38 128.2C125.46 126.34 125.48 125.74 125.48 121C125.48 116.25 125.46 115.65 125.38 113.79C125.29 111.93 125 110.66 124.56 109.55C124.12 108.4 123.52 107.43 122.55 106.45C121.58 105.48 120.6 104.88 119.45 104.44C118.34 104.01 117.07 103.71 115.21 103.63C113.34 103.54 112.75 103.52 108 103.52C103.25 103.52 102.65 103.54 100.79 103.63Z" fill="url(#paint_radial_202_51_0)" fill-opacity="1.000000" fill-rule="nonzero"/>
		<path id="Vector" d="M102.17 121C102.17 117.78 104.78 115.17 108 115.17C111.22 115.17 113.83 117.78 113.83 121C113.83 124.21 111.22 126.82 108 126.82C104.78 126.82 102.17 124.21 102.17 121ZM99.02 121C99.02 125.95 103.04 129.97 108 129.97C112.96 129.97 116.97 125.95 116.97 121C116.97 116.04 112.96 112.02 108 112.02C103.04 112.02 99.02 116.04 99.02 121ZM115.23 111.67C115.23 112.08 115.35 112.49 115.59 112.83C115.82 113.18 116.14 113.45 116.53 113.6C116.91 113.76 117.33 113.81 117.74 113.72C118.15 113.64 118.52 113.44 118.81 113.15C119.11 112.86 119.31 112.48 119.39 112.08C119.47 111.67 119.43 111.25 119.27 110.87C119.11 110.48 118.84 110.15 118.5 109.92C118.15 109.69 117.75 109.57 117.33 109.57L117.33 109.57C116.77 109.57 116.24 109.79 115.85 110.18C115.45 110.58 115.23 111.11 115.23 111.67ZM100.93 135.22C99.23 135.14 98.3 134.86 97.69 134.62C96.87 134.3 96.29 133.92 95.67 133.31C95.06 132.7 94.68 132.12 94.37 131.3C94.13 130.69 93.84 129.76 93.76 128.06C93.68 126.22 93.66 125.66 93.66 121C93.66 116.33 93.68 115.78 93.76 113.93C93.84 112.23 94.13 111.31 94.37 110.69C94.68 109.87 95.06 109.29 95.67 108.68C96.29 108.07 96.87 107.69 97.69 107.37C98.3 107.13 99.23 106.85 100.93 106.77C102.78 106.69 103.33 106.67 108 106.67C112.66 106.67 113.22 106.69 115.06 106.77C116.77 106.85 117.69 107.13 118.31 107.37C119.13 107.69 119.71 108.07 120.32 108.68C120.93 109.29 121.31 109.87 121.63 110.69C121.87 111.3 122.15 112.23 122.23 113.93C122.32 115.78 122.33 116.33 122.33 121C122.33 125.66 122.32 126.21 122.23 128.06C122.15 129.76 121.87 130.69 121.63 131.3C121.31 132.12 120.93 132.7 120.32 133.31C119.71 133.92 119.13 134.3 118.31 134.62C117.69 134.86 116.77 135.14 115.06 135.22C113.22 135.3 112.67 135.32 108 135.32C103.33 135.32 102.78 135.3 100.93 135.22ZM100.79 103.63C98.93 103.71 97.65 104.01 96.54 104.44C95.39 104.88 94.42 105.48 93.45 106.45C92.47 107.43 91.88 108.4 91.43 109.55C91 110.66 90.7 111.93 90.62 113.79C90.53 115.65 90.51 116.25 90.51 121C90.51 125.74 90.53 126.34 90.62 128.2C90.7 130.06 91 131.33 91.43 132.44C91.88 133.59 92.47 134.57 93.45 135.54C94.42 136.51 95.39 137.1 96.54 137.55C97.66 137.98 98.93 138.28 100.79 138.36C102.65 138.45 103.25 138.47 108 138.47C112.75 138.47 113.34 138.45 115.21 138.36C117.07 138.28 118.34 137.98 119.45 137.55C120.6 137.1 121.57 136.51 122.55 135.54C123.52 134.57 124.12 133.59 124.56 132.44C125 131.33 125.29 130.06 125.38 128.2C125.46 126.34 125.48 125.74 125.48 121C125.48 116.25 125.46 115.65 125.38 113.79C125.29 111.93 125 110.66 124.56 109.55C124.12 108.4 123.52 107.43 122.55 106.45C121.58 105.48 120.6 104.88 119.45 104.44C118.34 104.01 117.07 103.71 115.21 103.63C113.34 103.54 112.75 103.52 108 103.52C103.25 103.52 102.65 103.54 100.79 103.63Z" fill="url(#paint_radial_202_52_0)" fill-opacity="1.000000" fill-rule="nonzero"/>
		<path id="Products" d="M228.8 114.74C229.8 114.74 230.19 114.11 230.19 113.39L231.94 113.39C231.94 114.99 230.72 116.09 228.8 116.09C226.89 116.09 225.68 114.99 225.68 113.39L227.41 113.39C227.41 114.1 227.79 114.74 228.8 114.74ZM141.74 113.45L152.96 113.45L152.96 128L150.78 128L150.78 115.32L143.93 115.32L143.93 128L141.74 128L141.74 113.45ZM325.15 113.45L327.49 113.45L327.31 123.81L325.34 123.81L325.15 113.45ZM157.87 132.09L155.74 132.09L155.74 117.09L157.82 117.09L157.82 118.85L158 118.85C158.38 118.18 159.1 116.95 161.13 116.95C163.77 116.95 165.71 119.03 165.71 122.56C165.71 126.09 163.79 128.21 161.15 128.21C159.16 128.21 158.38 126.99 158 126.3L157.87 126.3L157.87 132.09ZM180.44 121.86L184.08 121.86L184.08 123.49L180.47 123.49C180.74 125.28 181.77 126.4 183.37 126.4C184.62 126.4 185.49 125.71 185.78 124.62L187.84 124.77C187.5 126.76 185.82 128.22 183.37 128.22C180.26 128.22 178.33 125.88 178.33 122.54C178.33 119.27 180.3 116.95 183.36 116.95C185.74 116.95 187.52 118.33 187.85 120.44L185.8 120.59C185.54 119.59 184.75 118.75 183.37 118.75C181.72 118.75 180.64 119.96 180.44 121.86ZM244.92 124.54C244.68 126.67 243.01 128.22 240.44 128.22C237.27 128.22 235.35 125.88 235.35 122.59C235.35 119.26 237.34 116.95 240.42 116.95C242.9 116.95 244.69 118.41 244.92 120.61L242.85 120.61C242.62 119.59 241.8 118.73 240.45 118.73C238.68 118.73 237.5 120.2 237.5 122.54C237.5 124.92 238.65 126.42 240.45 126.42C241.67 126.42 242.59 125.72 242.85 124.54L244.92 124.54ZM284.7 122.59C284.7 125.96 282.69 128.22 279.61 128.22C276.54 128.22 274.53 125.96 274.53 122.59C274.53 119.2 276.54 116.95 279.61 116.95C282.69 116.95 284.7 119.2 284.7 122.59ZM309.27 126.51C308.87 127.32 307.85 128.23 306.05 128.23C303.98 128.23 302.36 127.06 302.36 124.91C302.36 122.43 304.48 121.9 306.54 121.65C308.51 121.43 309.3 121.44 309.3 120.67L309.3 120.62C309.3 119.38 308.6 118.66 307.23 118.66C305.8 118.66 305.01 119.41 304.69 120.18L302.7 119.73C303.4 117.74 305.23 116.95 307.2 116.95C308.93 116.95 311.43 117.58 311.43 120.75L311.43 128L309.35 128L309.35 126.51L309.27 126.51ZM322.93 124.54C322.7 126.67 321.03 128.22 318.45 128.22C315.29 128.22 313.37 125.88 313.37 122.59C313.37 119.26 315.35 116.95 318.43 116.95C320.91 116.95 322.71 118.41 322.93 120.61L320.87 120.61C320.64 119.59 319.82 118.73 318.47 118.73C316.69 118.73 315.51 120.2 315.51 122.54C315.51 124.92 316.67 126.42 318.47 126.42C319.68 126.42 320.6 125.72 320.87 124.54L322.93 124.54ZM169.77 117.09L169.77 125.02L174.58 117.09L176.87 117.09L176.87 128L174.78 128L174.78 120.06L170 128L167.69 128L167.69 117.09L169.77 117.09ZM191.02 131.14L188.92 131.14L188.92 126.15L189.81 126.15C190.71 125.34 191.04 123.9 191.27 121.15L191.61 117.09L199.03 117.09L199.03 126.15L200.7 126.15L200.7 131.14L198.63 131.14L198.63 128L191.02 128L191.02 131.14ZM202.37 117.09L204.45 117.09L204.45 121.62L209.18 121.62L209.18 117.09L211.25 117.09L211.25 128L209.18 128L209.18 123.46L204.45 123.46L204.45 128L202.37 128L202.37 117.09ZM218.12 129.45C217.49 131.17 216.38 132.09 214.63 132.09C213.99 132.09 213.43 131.97 213.18 131.85L213.69 130.11C214.85 130.43 215.61 130.31 216.15 128.86L216.42 128.14L212.42 117.09L214.7 117.09L217.46 125.55L217.57 125.55L220.34 117.09L222.62 117.09L218.12 129.45ZM226.3 117.09L226.3 125.02L231.1 117.09L233.39 117.09L233.39 128L231.31 128L231.31 120.06L226.52 128L224.21 128L224.21 117.09L226.3 117.09ZM255.3 128L253.31 128L253.31 123.73L250.7 123.73L248.32 128L246.15 128L248.7 123.42C247.4 122.93 246.64 121.87 246.64 120.44C246.64 118.39 248.18 117.09 250.69 117.09L255.3 117.09L255.3 128ZM263.67 131.14L261.57 131.14L261.57 126.15L262.46 126.15C263.36 125.34 263.69 123.9 263.92 121.15L264.26 117.09L271.68 117.09L271.68 126.15L273.35 126.15L273.35 131.14L271.28 131.14L271.28 128L263.67 128L263.67 131.14ZM291.56 117.09L293.64 117.09L293.64 121.62L298.37 121.62L298.37 117.09L300.44 117.09L300.44 128L298.37 128L298.37 123.46L293.64 123.46L293.64 128L291.56 128L291.56 117.09ZM276.67 122.59C276.67 124.68 277.61 126.43 279.62 126.43C281.62 126.43 282.56 124.68 282.56 122.59C282.56 120.5 281.62 118.72 279.62 118.72C277.61 118.72 276.67 120.5 276.67 122.59ZM160.67 118.75C158.82 118.75 157.83 120.26 157.83 122.54C157.83 124.84 158.85 126.4 160.67 126.4C162.57 126.4 163.57 124.73 163.57 122.54C163.57 120.37 162.6 118.75 160.67 118.75ZM250.55 122.01L253.31 122.01L253.31 118.9L250.69 118.9C249.45 118.9 248.72 119.53 248.73 120.47C248.72 121.4 249.39 122.01 250.55 122.01ZM193.29 121.15C193.08 123.45 192.81 125.14 192.08 126.15L196.95 126.15L196.95 118.9L193.51 118.9L193.29 121.15ZM265.94 121.15C265.72 123.45 265.45 125.14 264.73 126.15L269.6 126.15L269.6 118.9L266.16 118.9L265.94 121.15ZM304.44 124.94C304.44 125.99 305.31 126.53 306.51 126.53C308.28 126.53 309.31 125.35 309.31 124.06L309.31 122.65C309 122.96 307.37 123.15 306.68 123.23C305.45 123.4 304.44 123.81 304.44 124.94ZM327.74 126.71C327.74 127.5 327.09 128.13 326.32 128.13C325.54 128.13 324.9 127.5 324.9 126.71C324.9 125.93 325.54 125.3 326.32 125.3C327.09 125.3 327.74 125.93 327.74 126.71Z" fill="#373737" fill-opacity="1.000000" fill-rule="evenodd"/>
	</g>
</svg>
