<svg width="1684" height="1190" viewBox="0 0 1684 1190" fill="none" xmlns="http://www.w3.org/2000/svg">
<path d="M319.732 223.313L209.133 281.759C125.073 326.181 29.406 343.737 -64.9495 332.058L-201.667 315.135C-406.094 289.831 -586.5 449.283 -586.5 655.27C-586.5 844.554 -433.054 998 -243.769 998H1617.57C1892.29 998 2115 775.294 2115 500.571V451.89C2115 223.358 1941.45 32.1888 1713.99 10.1543C1641.76 3.15824 1568.93 13.977 1501.86 41.6631L1314.48 119.012C1167.23 179.793 1004.6 192.7 849.611 155.906C670.652 113.42 482.354 137.374 319.732 223.313Z" fill="url(#paint0_linear_498_148)"/>
<path opacity="0.4" d="M319.896 223.225L209.133 281.759C125.073 326.181 29.4062 343.737 -64.9493 332.058C-342.002 297.764 -586.5 513.864 -586.5 793.031V836.282C-586.5 1113.93 -361.425 1339 -83.7817 1339H1438.52C1812.13 1339 2115 1036.13 2115 662.519V451.511C2115 223.137 1941.69 32.0422 1714.4 9.80251C1641.92 2.70993 1568.8 13.5653 1501.5 41.411L1314.57 118.753C1167.28 179.698 1004.52 192.683 849.43 155.863C670.588 113.405 482.412 137.343 319.896 223.225Z" stroke="url(#paint1_linear_498_148)" stroke-width="2"/>
<defs>
<linearGradient id="paint0_linear_498_148" x1="842" y1="-8.38417" x2="842" y2="647.657" gradientUnits="userSpaceOnUse">
<stop stop-color="#9BC5E9" stop-opacity="0.02"/>
<stop offset="1" stop-color="#9BC5E9" stop-opacity="0"/>
</linearGradient>
<linearGradient id="paint1_linear_498_148" x1="80" y1="151.25" x2="1604" y2="151.25" gradientUnits="userSpaceOnUse">
<stop stop-color="#9BC5E9"/>
<stop offset="1" stop-color="#9BC5E9"/>
</linearGradient>
</defs>
</svg>
