<svg width="156.000000" height="40.000000" viewBox="0 0 156 40" fill="none" xmlns="http://www.w3.org/2000/svg" xmlns:xlink="http://www.w3.org/1999/xlink">
	<desc>
			Created with Pixso.
	</desc>
	<defs/>
	<path id="Vector 2" d="M36.14 0L36.54 1.2C36.54 1.2 28.67 1.06 28.67 10.13C28.67 19.2 37.07 21.06 37.07 29.33C37.07 37.59 24.81 40 24.81 40L24.14 38.66C26.14 38 32.14 37.06 31.74 30.13C31.33 23.2 23.87 20.4 23.61 11.46C23.34 2.53 33.47 0 36.14 0Z" fill="#373737" fill-opacity="1.000000" fill-rule="evenodd"/>
	<path id="Vector 1" d="M15.2 0L15.6 1.2C15.6 1.2 7.73 1.06 7.73 10.13C7.73 19.2 16.13 21.06 16.13 29.33C16.13 37.59 3.87 40 3.87 40L3.2 38.66C5.2 38 11.2 37.06 10.8 30.13C10.4 23.2 2.93 20.4 2.67 11.46C2.4 2.53 12.53 0 15.2 0Z" fill="#373737" fill-opacity="1.000000" fill-rule="evenodd"/>
	<path id="Vector" d="M151.16 18.97L147.52 18.97L147.52 18.03L148.9 18.03L148.9 8.99L145.85 8.99L145.85 10.46L144.87 10.46L144.87 8.06L153.93 8.06L153.93 10.46L152.95 10.46L152.95 8.99L149.93 8.99L149.93 18.03L151.16 18.03L151.16 18.97Z" fill="#373737" fill-opacity="1.000000" fill-rule="nonzero"/>
	<path id="Vector" d="M135.2 18.97L126.99 18.97L126.99 18.03L128.04 18.03L128.04 8.99L126.99 8.99L126.99 8.06L134.97 8.06L134.97 10.46L133.99 10.46L133.99 8.99L129.07 8.99L129.07 13L134.33 13L134.33 13.93L129.07 13.93L129.07 18.03L134.21 18.03L134.21 16.57L135.2 16.57L135.2 18.97Z" fill="#373737" fill-opacity="1.000000" fill-rule="nonzero"/>
	<path id="Vector" d="M117.32 18.97L109.11 18.97L109.11 18.03L110.16 18.03L110.16 8.99L109.11 8.99L109.11 8.06L117.09 8.06L117.09 10.46L116.11 10.46L116.11 8.99L111.19 8.99L111.19 13L116.45 13L116.45 13.93L111.19 13.93L111.19 18.03L116.34 18.03L116.34 16.57L117.32 16.57L117.32 18.97Z" fill="#373737" fill-opacity="1.000000" fill-rule="nonzero"/>
	<path id="Vector" d="M94.82 18.97L91.18 18.97L91.18 18.03L92.05 18.03L92.05 8.99L91.18 8.99L91.18 8.06L94.62 8.06C94.98 8.06 95.38 8.11 95.8 8.23C96.24 8.33 96.64 8.5 97.01 8.73C97.4 8.97 97.71 9.27 97.96 9.63C98.22 9.99 98.34 10.44 98.34 10.97C98.34 11.72 98.13 12.35 97.72 12.87C97.3 13.38 96.7 13.71 95.9 13.87L97.95 18.03L99.44 18.03L99.44 18.97L97.31 18.97L94.82 13.95C94.68 13.95 94.56 13.95 94.46 13.96C94.36 13.97 94.24 13.98 94.1 13.98L93.08 13.98L93.08 18.03L94.82 18.03L94.82 18.97ZM93.08 8.99L93.08 13.03L94.64 13.03C95.15 13.03 95.58 12.96 95.92 12.83C96.27 12.69 96.54 12.52 96.75 12.33C96.95 12.13 97.09 11.91 97.18 11.67C97.27 11.42 97.31 11.19 97.31 10.97C97.31 10.7 97.24 10.45 97.1 10.22C96.96 9.98 96.78 9.77 96.54 9.58C96.3 9.41 96.01 9.27 95.69 9.16C95.37 9.05 95.03 8.99 94.65 8.99L93.08 8.99Z" fill="#373737" fill-opacity="1.000000" fill-rule="nonzero"/>
	<path id="Vector" d="M78.75 18.97L75.11 18.97L75.11 18.03L76.48 18.03L76.48 8.99L73.44 8.99L73.44 10.46L72.45 10.46L72.45 8.06L81.51 8.06L81.51 10.46L80.53 10.46L80.53 8.99L77.52 8.99L77.52 18.03L78.75 18.03L78.75 18.97Z" fill="#373737" fill-opacity="1.000000" fill-rule="nonzero"/>
	<path id="Vector" d="M62.01 18.28C61.69 18.54 61.33 18.74 60.91 18.89C60.5 19.02 60.05 19.09 59.58 19.09C59.17 19.09 58.77 19.05 58.39 18.97C58 18.87 57.66 18.76 57.35 18.62C57.05 18.49 56.78 18.34 56.54 18.17C56.31 17.99 56.13 17.82 56 17.64L56 15.91L56.98 15.91L56.98 17.3C57.27 17.54 57.63 17.74 58.04 17.91C58.46 18.07 58.94 18.16 59.48 18.16C59.81 18.16 60.12 18.11 60.42 18.02C60.72 17.92 60.99 17.79 61.22 17.61C61.45 17.43 61.63 17.22 61.76 16.96C61.9 16.7 61.98 16.4 61.98 16.07C61.98 15.8 61.94 15.55 61.88 15.32C61.81 15.09 61.71 14.9 61.57 14.74C61.38 14.53 61.17 14.37 60.93 14.24C60.7 14.12 60.44 14 60.16 13.89C59.76 13.75 59.35 13.63 58.91 13.51C58.49 13.4 58.09 13.24 57.73 13.04C57.36 12.86 57.05 12.6 56.8 12.28C56.56 11.95 56.43 11.49 56.42 10.91C56.41 10.57 56.45 10.22 56.55 9.88C56.66 9.54 56.84 9.23 57.09 8.95C57.33 8.67 57.65 8.44 58.04 8.26C58.45 8.08 58.94 8 59.52 8C59.7 8 59.91 8.01 60.14 8.03C60.37 8.05 60.6 8.08 60.84 8.14C61.07 8.2 61.31 8.29 61.57 8.4C61.82 8.51 62.06 8.67 62.3 8.85L62.3 10.46L61.32 10.46L61.32 9.32C61.11 9.22 60.86 9.13 60.55 9.05C60.24 8.97 59.9 8.93 59.52 8.93C59.16 8.93 58.85 8.99 58.58 9.1C58.32 9.21 58.11 9.35 57.94 9.54C57.78 9.72 57.66 9.93 57.57 10.16C57.49 10.39 57.45 10.63 57.45 10.88C57.45 11.26 57.55 11.57 57.73 11.8C57.93 12.02 58.19 12.2 58.5 12.34C58.91 12.53 59.38 12.7 59.91 12.84C60.45 12.98 60.96 13.16 61.45 13.39C61.91 13.59 62.28 13.91 62.57 14.34C62.86 14.75 63.01 15.32 63.01 16.05C63.02 16.52 62.93 16.94 62.75 17.31C62.57 17.69 62.32 18.01 62.01 18.28Z" fill="#373737" fill-opacity="1.000000" fill-rule="nonzero"/>
	<path id="Vector" d="M152.24 25.1L152.24 30.67L154.72 30.67L154.88 29.56L156 29.56L156 31.84L149.89 31.84L149.89 30.81L150.69 30.67L150.69 25.1L149.89 24.96L149.89 23.93L153.04 23.93L153.04 24.96L152.24 25.1Z" fill="#373737" fill-opacity="1.000000" fill-rule="nonzero"/>
	<path id="Vector" d="M142.53 24.9C143.15 24.14 144.07 23.77 145.29 23.77C146.51 23.77 147.43 24.14 148.04 24.9C148.65 25.66 148.95 26.63 148.95 27.84C148.95 29.11 148.65 30.13 148.04 30.88C147.43 31.62 146.51 32 145.29 32C144.06 32 143.14 31.62 142.53 30.88C141.92 30.13 141.61 29.12 141.61 27.84C141.61 26.63 141.92 25.66 142.53 24.9ZM145.28 30.76C145.98 30.76 146.51 30.49 146.86 29.97C147.22 29.43 147.4 28.72 147.4 27.84C147.4 27.01 147.22 26.34 146.86 25.81C146.5 25.27 145.98 25 145.28 25C144.59 25 144.07 25.27 143.7 25.81C143.34 26.34 143.16 27.01 143.16 27.84C143.16 28.72 143.34 29.42 143.7 29.96C144.06 30.49 144.58 30.76 145.28 30.76Z" fill="#373737" fill-opacity="1.000000" fill-rule="nonzero"/>
	<path id="Vector" d="M134.19 24.9C134.8 24.14 135.72 23.77 136.94 23.77C138.17 23.77 139.09 24.14 139.69 24.9C140.3 25.66 140.61 26.63 140.61 27.84C140.61 29.11 140.3 30.13 139.69 30.88C139.09 31.62 138.17 32 136.95 32C135.72 32 134.8 31.62 134.18 30.88C133.57 30.13 133.26 29.12 133.26 27.84C133.26 26.63 133.57 25.66 134.19 24.9ZM136.93 30.76C137.63 30.76 138.16 30.49 138.52 29.97C138.88 29.43 139.06 28.72 139.06 27.84C139.06 27.01 138.88 26.34 138.52 25.81C138.16 25.27 137.63 25 136.93 25C136.25 25 135.72 25.27 135.36 25.81C135 26.34 134.82 27.01 134.82 27.84C134.82 28.72 135 29.42 135.35 29.96C135.71 30.49 136.24 30.76 136.93 30.76Z" fill="#373737" fill-opacity="1.000000" fill-rule="nonzero"/>
	<path id="Vector" d="M131.51 25.1L131.51 30.67L132.33 30.81L132.33 31.84L129.16 31.84L129.16 30.83L129.98 30.67L129.98 28.47L126.37 28.48L126.37 30.67L127.17 30.81L127.17 31.84L124.01 31.84L124.01 30.83L124.81 30.67L124.81 25.1L124.01 24.96L124.01 23.93L127.17 23.93L127.17 24.96L126.37 25.1L126.37 27.2L129.98 27.2L129.98 25.1L129.16 24.96L129.16 23.93L132.33 23.93L132.33 24.96L131.51 25.1Z" fill="#373737" fill-opacity="1.000000" fill-rule="nonzero"/>
	<path id="Vector" d="M121.86 30.4L121.99 29.43L123.13 29.43L123.13 31.07C122.88 31.32 122.5 31.54 122 31.72C121.5 31.9 120.97 32 120.41 32C119.15 32 118.2 31.63 117.56 30.89C116.93 30.15 116.61 29.12 116.61 27.79C116.61 26.59 116.94 25.61 117.58 24.87C118.23 24.14 119.18 23.77 120.41 23.77C120.9 23.77 121.38 23.83 121.84 23.96C122.3 24.09 122.65 24.25 122.89 24.43L122.88 26.2L121.73 26.2L121.59 25.23C121.33 25.08 120.94 25 120.43 25C119.73 25 119.17 25.26 118.77 25.77C118.36 26.29 118.16 26.97 118.16 27.84C118.16 28.72 118.36 29.43 118.75 29.97C119.15 30.49 119.68 30.76 120.36 30.76C120.71 30.76 121.03 30.72 121.31 30.65C121.59 30.58 121.78 30.5 121.86 30.4Z" fill="#373737" fill-opacity="1.000000" fill-rule="nonzero"/>
	<path id="Vector" d="M111.76 25.99C111.76 26.17 111.79 26.33 111.87 26.47C111.95 26.61 112.07 26.73 112.25 26.82C112.43 26.92 112.59 26.99 112.74 27.04C112.88 27.09 113.08 27.16 113.35 27.24C113.56 27.3 113.71 27.34 113.82 27.38C113.92 27.41 114.07 27.46 114.26 27.54C114.46 27.62 114.61 27.69 114.71 27.76C114.82 27.82 114.95 27.92 115.09 28.04C115.23 28.16 115.33 28.29 115.4 28.42C115.47 28.56 115.53 28.72 115.59 28.91C115.64 29.1 115.66 29.31 115.66 29.54C115.66 30.31 115.41 30.91 114.91 31.35C114.41 31.78 113.7 32 112.76 32C112.21 32 111.7 31.92 111.21 31.78C110.73 31.64 110.35 31.46 110.07 31.24L110.07 29.31L111.2 29.31L111.31 30.35C111.61 30.62 112.09 30.76 112.75 30.75C113.14 30.75 113.47 30.66 113.73 30.49C114 30.32 114.13 30.07 114.12 29.73C114.12 29.57 114.09 29.42 114.02 29.3C113.96 29.18 113.9 29.08 113.83 29.01C113.76 28.93 113.64 28.86 113.47 28.78C113.3 28.71 113.16 28.65 113.05 28.62C112.95 28.59 112.77 28.53 112.51 28.45C112.23 28.36 112.01 28.29 111.85 28.23C111.69 28.18 111.49 28.09 111.25 27.96C111.01 27.83 110.83 27.68 110.7 27.53C110.57 27.37 110.46 27.16 110.36 26.9C110.25 26.64 110.2 26.34 110.2 26C110.2 25.38 110.47 24.85 110.99 24.42C111.52 23.98 112.16 23.77 112.91 23.77C113.36 23.77 113.79 23.83 114.2 23.96C114.62 24.09 114.96 24.24 115.22 24.43L115.2 26.2L114.1 26.2L113.93 25.26C113.73 25.09 113.4 25 112.96 25C112.62 25 112.33 25.09 112.1 25.26C111.87 25.43 111.76 25.67 111.76 25.99Z" fill="#373737" fill-opacity="1.000000" fill-rule="nonzero"/>
	<path id="Vector" d="M105.65 25.1L105.65 30.67L106.47 30.81L106.47 31.84L103.3 31.84L103.3 30.83L104.12 30.67L104.12 28.47L100.5 28.48L100.5 30.67L101.31 30.81L101.31 31.84L98.15 31.84L98.15 30.83L98.95 30.67L98.95 25.1L98.15 24.96L98.15 23.93L101.31 23.93L101.31 24.96L100.5 25.1L100.5 27.2L104.12 27.2L104.12 25.1L103.3 24.96L103.3 23.93L106.47 23.93L106.47 24.96L105.65 25.1Z" fill="#373737" fill-opacity="1.000000" fill-rule="nonzero"/>
	<path id="Vector" d="M93.36 25.99C93.36 26.17 93.4 26.33 93.48 26.47C93.55 26.61 93.68 26.73 93.86 26.82C94.04 26.92 94.2 26.99 94.34 27.04C94.49 27.09 94.69 27.16 94.96 27.24C95.17 27.3 95.32 27.34 95.42 27.38C95.53 27.41 95.68 27.46 95.87 27.54C96.07 27.62 96.22 27.69 96.32 27.76C96.43 27.82 96.55 27.92 96.7 28.04C96.84 28.16 96.94 28.29 97.01 28.42C97.08 28.56 97.14 28.72 97.19 28.91C97.25 29.1 97.27 29.31 97.27 29.54C97.27 30.31 97.02 30.91 96.52 31.35C96.02 31.78 95.31 32 94.37 32C93.82 32 93.31 31.92 92.82 31.78C92.34 31.64 91.95 31.46 91.68 31.24L91.68 29.31L92.8 29.31L92.92 30.35C93.21 30.62 93.7 30.76 94.36 30.75C94.75 30.75 95.08 30.66 95.34 30.49C95.61 30.32 95.73 30.07 95.73 29.73C95.73 29.57 95.7 29.42 95.63 29.3C95.57 29.18 95.51 29.08 95.44 29.01C95.37 28.93 95.25 28.86 95.08 28.78C94.91 28.71 94.77 28.65 94.66 28.62C94.56 28.59 94.38 28.53 94.12 28.45C93.84 28.36 93.62 28.29 93.46 28.23C93.3 28.18 93.1 28.09 92.86 27.96C92.62 27.83 92.44 27.68 92.31 27.53C92.18 27.37 92.06 27.16 91.96 26.9C91.86 26.64 91.81 26.34 91.81 26C91.81 25.38 92.08 24.85 92.6 24.42C93.13 23.98 93.77 23.77 94.52 23.77C94.97 23.77 95.4 23.83 95.81 23.96C96.23 24.09 96.57 24.24 96.82 24.43L96.81 26.2L95.7 26.2L95.54 25.26C95.34 25.09 95.01 25 94.57 25C94.22 25 93.94 25.09 93.71 25.26C93.48 25.43 93.36 25.67 93.36 25.99Z" fill="#373737" fill-opacity="1.000000" fill-rule="nonzero"/>
	<path id="Vector" d="M90.01 25.1L90.01 30.67L90.81 30.81L90.81 31.84L87.66 31.84L87.66 30.81L88.46 30.67L88.46 25.1L87.66 24.96L87.66 23.93L90.81 23.93L90.81 24.96L90.01 25.1Z" fill="#373737" fill-opacity="1.000000" fill-rule="nonzero"/>
	<path id="Vector" d="M83.13 25.1L83.13 30.67L85.62 30.67L85.77 29.56L86.89 29.56L86.89 31.84L80.78 31.84L80.78 30.81L81.58 30.67L81.58 25.1L80.78 24.96L80.78 23.93L83.93 23.93L83.93 24.96L83.13 25.1Z" fill="#373737" fill-opacity="1.000000" fill-rule="nonzero"/>
	<path id="Vector" d="M79.34 28.93L79.34 31.16C79.08 31.39 78.69 31.58 78.17 31.75C77.64 31.91 77.07 32 76.45 32C75.16 32 74.21 31.63 73.58 30.9C72.95 30.18 72.64 29.15 72.64 27.84C72.64 26.6 72.96 25.61 73.61 24.87C74.25 24.14 75.2 23.77 76.44 23.77C76.93 23.77 77.41 23.83 77.87 23.96C78.33 24.09 78.68 24.25 78.92 24.43L78.91 26.2L77.76 26.2L77.62 25.23C77.36 25.08 76.97 25 76.46 25C75.76 25 75.2 25.26 74.79 25.77C74.39 26.28 74.19 26.96 74.19 27.82C74.19 28.74 74.38 29.46 74.77 29.98C75.15 30.5 75.73 30.76 76.51 30.76C77.15 30.76 77.61 30.65 77.91 30.42L77.91 28.93L76.52 28.82L76.52 27.76L79.91 27.76L79.91 28.82L79.34 28.93Z" fill="#373737" fill-opacity="1.000000" fill-rule="nonzero"/>
	<path id="Vector" d="M65.54 26.39L65.54 30.67L66.34 30.83L66.34 31.84L63.19 31.84L63.19 30.83L63.99 30.67L63.99 25.1L63.19 24.96L63.19 23.93L65.53 23.93L69.35 29.4L69.35 25.1L68.53 24.96L68.53 23.93L71.69 23.93L71.69 24.96L70.88 25.1L70.88 31.84L69.35 31.84L65.54 26.39Z" fill="#373737" fill-opacity="1.000000" fill-rule="nonzero"/>
	<path id="Vector" d="M60.96 28.38L58.35 28.38L58.35 30.67L61.02 30.67L61.16 29.67L62.29 29.67L62.29 31.84L56 31.84L56 30.81L56.8 30.67L56.8 25.1L56 24.96L56 23.93L62.14 23.93L62.14 26.03L61.02 26.03L60.87 25.1L58.35 25.1L58.35 27.2L60.96 27.2L60.96 28.38Z" fill="#373737" fill-opacity="1.000000" fill-rule="nonzero"/>
</svg>
