<svg width="24.000000" height="24.000000" viewBox="0 0 24 24" fill="none" xmlns="http://www.w3.org/2000/svg" xmlns:xlink="http://www.w3.org/1999/xlink">
	<desc>
			Created with Pixso.
	</desc>
	<defs>
		<clipPath id="clip117_1075">
			<rect id="material-symbols-light:social-leaderboard-rounded" rx="0.000000" width="23.000000" height="23.000000" transform="translate(0.500000 0.500000)" fill="white" fill-opacity="0"/>
		</clipPath>
	</defs>
	<rect id="material-symbols-light:social-leaderboard-rounded" rx="0.000000" width="23.000000" height="23.000000" transform="translate(0.500000 0.500000)" fill="#FFFFFF" fill-opacity="0"/>
	<g clip-path="url(#clip117_1075)">
		<g opacity="0.300000">
			<path id="Vector" d="M7.47 20C6.24 20 5.18 19.54 4.31 18.64C3.43 17.73 3 16.64 3 15.36C3 14.11 3.42 13.03 4.27 12.13C5.12 11.23 6.15 10.77 7.37 10.74C7.49 10.74 7.62 10.75 7.75 10.77C7.88 10.79 8.01 10.81 8.14 10.84L5.43 5.2C5.29 4.92 5.3 4.65 5.45 4.39C5.6 4.13 5.83 4 6.14 4L8.62 4C8.92 4 9.2 4.08 9.46 4.25C9.72 4.41 9.92 4.64 10.06 4.91L12 8.93L13.93 4.91C14.07 4.64 14.27 4.41 14.53 4.25C14.79 4.08 15.07 4 15.37 4L17.83 4C18.14 4 18.37 4.13 18.53 4.39C18.69 4.65 18.7 4.92 18.56 5.2L15.88 10.77C16 10.74 16.11 10.72 16.24 10.71C16.36 10.69 16.48 10.69 16.61 10.69C17.84 10.72 18.87 11.18 19.72 12.08C20.57 12.98 21 14.07 21 15.34C21 16.63 20.56 17.73 19.68 18.64C18.81 19.54 17.75 20 16.5 20C16.31 20 16.11 19.98 15.92 19.96C15.72 19.94 15.53 19.9 15.36 19.84C16.15 19.48 16.7 18.88 17.02 18.03C17.34 17.17 17.5 16.28 17.5 15.34C17.5 13.75 16.96 12.4 15.9 11.3C14.83 10.2 13.53 9.65 12 9.65C10.46 9.65 9.16 10.2 8.09 11.3C7.03 12.4 6.5 13.75 6.5 15.34C6.5 16.29 6.64 17.2 6.94 18.07C7.23 18.95 7.79 19.54 8.63 19.84C8.44 19.9 8.25 19.94 8.06 19.96C7.87 19.98 7.67 19.99 7.47 20Z" fill="#9BC5E9" fill-opacity="1.000000" fill-rule="nonzero"/>
		</g>
		<path id="Vector" d="M12 20C10.61 20 9.43 19.51 8.45 18.54C7.48 17.57 7 16.38 7 15C6.99 13.61 7.48 12.43 8.45 11.45C9.43 10.48 10.61 10 12 10C13.38 9.99 14.56 10.48 15.54 11.45C16.51 12.43 17 13.61 17 15C16.99 16.38 16.51 17.56 15.54 18.54C14.57 19.51 13.39 20 12 20ZM13.19 17.12L12 16.22L10.81 17.12C10.71 17.18 10.62 17.18 10.54 17.12C10.45 17.06 10.43 16.98 10.47 16.87L10.91 15.39L9.74 14.55C9.64 14.49 9.61 14.41 9.65 14.31C9.69 14.21 9.76 14.16 9.87 14.16L11.32 14.16L11.78 12.61C11.82 12.51 11.89 12.46 12 12.46C12.1 12.46 12.17 12.51 12.21 12.61L12.67 14.16L14.13 14.16C14.23 14.16 14.3 14.21 14.34 14.31C14.38 14.41 14.35 14.49 14.25 14.55L13.08 15.39L13.52 16.88C13.56 16.98 13.54 17.06 13.45 17.12C13.37 17.18 13.28 17.18 13.19 17.12Z" fill="#9BC5E9" fill-opacity="1.000000" fill-rule="evenodd"/>
	</g>
</svg>
