<svg width="24.000000" height="24.000000" viewBox="0 0 24 24" fill="none" xmlns="http://www.w3.org/2000/svg" xmlns:xlink="http://www.w3.org/1999/xlink">
	<desc>
			Created with Pixso.
	</desc>
	<defs>
		<clipPath id="clip116_1059">
			<rect id="game-icons:hand" rx="-0.500000" width="23.000000" height="23.000000" transform="translate(0.500000 0.500000)" fill="white" fill-opacity="0"/>
		</clipPath>
	</defs>
	<rect id="game-icons:hand" rx="-0.500000" width="23.000000" height="23.000000" transform="translate(0.500000 0.500000)" fill="#FFFFFF" fill-opacity="0"/>
	<g clip-path="url(#clip116_1059)">
		<g opacity="0.300000">
			<path id="Vector" d="M18.52 6.1C18.52 6.1 17.91 9.39 17.94 10.99C17.97 13.07 18.93 14.4 18.72 16.48C18.09 19.04 18.1 19.42 13.61 20.62C11.96 21.06 6.9 21.06 6.9 21.06C6.21 21.07 5.04 21.49 4.84 20.76C4.65 20.04 5.36 19.28 6.11 19.07L9.16 18.54C9.87 18.3 10.52 17.67 10.29 16.72C9.9 15.32 9.47 14.29 8.46 13.34L4.54 9.77C4.29 9.47 4.09 8.9 4.5 8.51C4.91 8.12 5.55 8.36 5.83 8.65L10.03 12.02C10.44 12.24 11.05 12.14 10.82 11.5L7.79 5.63C7.58 5.2 7.67 4.61 8.18 4.47C8.85 4.29 9.34 4.44 9.43 4.85L12.58 10.6C12.78 10.87 13.18 10.72 13.22 10.41L12.04 4.31C12.01 4.12 12.17 3.72 12.67 3.66C13.16 3.6 13.58 4.04 13.58 4.25L15.03 10.2C15.26 10.7 15.7 10.67 15.94 10.29L17.03 5.98C17.07 5.63 17.55 5.43 17.87 5.48C18.19 5.58 18.43 5.77 18.52 6.1L18.52 6.1Z" fill="#93BCE0" fill-opacity="1.000000" fill-rule="nonzero"/>
		</g>
		<path id="Vector" d="M15.12 9.38C15.12 9.38 14.95 11.53 14.66 12.53C14.29 13.82 13.47 14.49 13.25 15.83C13.22 17.53 13.15 17.77 15.76 19.27C16.71 19.82 19.87 20.67 19.87 20.67C20.3 20.79 20.97 21.25 21.21 20.83C21.45 20.41 21.14 19.82 20.7 19.56L18.88 18.72C18.48 18.45 18.18 17.95 18.48 17.39C18.96 16.58 19.4 16.01 20.19 15.58L23.24 14.01C23.45 13.87 23.67 13.54 23.48 13.23C23.29 12.92 22.84 12.96 22.62 13.1L19.43 14.5C19.14 14.56 18.78 14.4 19.02 14.04L21.9 10.88C22.1 10.65 22.15 10.26 21.85 10.09C21.46 9.86 21.14 9.87 21.01 10.11L18.08 13.18C17.91 13.32 17.68 13.16 17.71 12.96L19.47 9.34C19.52 9.23 19.49 8.95 19.19 8.83C18.88 8.71 18.55 8.91 18.52 9.05L16.61 12.52C16.38 12.8 16.12 12.7 16.03 12.42L16.07 9.55C16.1 9.33 15.83 9.12 15.62 9.1C15.41 9.11 15.23 9.19 15.12 9.38L15.12 9.38Z" fill="#93BCE0" fill-opacity="1.000000" fill-rule="nonzero"/>
	</g>
</svg>
