<svg width="24.000000" height="24.000000" viewBox="0 0 24 24" fill="none" xmlns="http://www.w3.org/2000/svg" xmlns:xlink="http://www.w3.org/1999/xlink">
	<desc>
			Created with Pixso.
	</desc>
	<defs>
		<clipPath id="clip117_1120">
			<rect id="fluent:learning-app-24-filled" rx="0.000000" width="23.000000" height="23.000000" transform="translate(0.500000 0.500000)" fill="white" fill-opacity="0"/>
		</clipPath>
	</defs>
	<rect id="fluent:learning-app-24-filled" rx="0.000000" width="23.000000" height="23.000000" transform="translate(0.500000 0.500000)" fill="#FFFFFF" fill-opacity="0"/>
	<g clip-path="url(#clip117_1120)">
		<path id="Vector" d="M5.5 2L17 2C17.66 2 18.29 2.26 18.76 2.73C19.23 3.2 19.5 3.83 19.5 4.5L19.5 11.31C18.36 10.94 17.14 10.89 15.97 11.17C14.81 11.45 13.74 12.05 12.9 12.9C12.05 13.74 11.45 14.81 11.17 15.97C10.89 17.14 10.94 18.36 11.31 19.5L4.5 19.5C4.5 19.76 4.6 20.01 4.79 20.2C4.98 20.39 5.23 20.5 5.5 20.5L11.73 20.5C12.01 21.04 12.38 21.55 12.81 22L5.5 22C4.83 22 4.2 21.73 3.73 21.26C3.26 20.79 3 20.16 3 19.5L3 4.5C3 3.83 3.26 3.2 3.73 2.73C4.2 2.26 4.83 2 5.5 2ZM7 5C6.73 5 6.48 5.1 6.29 5.29C6.1 5.48 6 5.73 6 6L6 7C6 7.26 6.1 7.51 6.29 7.7C6.48 7.89 6.73 8 7 8L15 8C15.26 8 15.51 7.89 15.7 7.7C15.89 7.51 16 7.26 16 7L16 6C16 5.73 15.89 5.48 15.7 5.29C15.51 5.1 15.26 5 15 5L7 5ZM23 17.5C23 16.04 22.42 14.64 21.38 13.61C20.35 12.57 18.95 12 17.5 12C16.04 12 14.64 12.57 13.61 13.61C12.57 14.64 12 16.04 12 17.5C12 18.95 12.57 20.35 13.61 21.38C14.64 22.42 16.04 23 17.5 23C18.95 23 20.35 22.42 21.38 21.38C22.42 20.35 23 18.95 23 17.5ZM16.91 15.09L19.71 16.93C19.8 16.99 19.87 17.06 19.92 17.16C19.97 17.25 20 17.35 20 17.45C20 17.56 19.97 17.66 19.92 17.75C19.88 17.84 19.81 17.92 19.73 17.98L16.92 19.89C16.87 19.93 16.82 19.95 16.76 19.97C16.63 20.01 16.49 20 16.37 19.95C16.29 19.91 16.23 19.87 16.17 19.81C16.12 19.75 16.07 19.68 16.04 19.61C16.01 19.54 15.99 19.46 16 19.37L16 15.62C15.99 15.5 16.03 15.38 16.09 15.28C16.16 15.18 16.25 15.1 16.36 15.05C16.45 15 16.55 14.99 16.64 15C16.74 15 16.83 15.04 16.91 15.09L16.91 15.09Z" fill="#9BC5E9" fill-opacity="1.000000" fill-rule="nonzero"/>
	</g>
</svg>
