<svg width="24.000000" height="24.000000" viewBox="0 0 24 24" fill="none" xmlns="http://www.w3.org/2000/svg" xmlns:xlink="http://www.w3.org/1999/xlink">
	<desc>
			Created with Pixso.
	</desc>
	<defs>
		<clipPath id="clip115_1900">
			<rect id="mage:goals-fill" rx="-0.500000" width="23.000000" height="23.000000" transform="translate(0.500000 0.500000)" fill="white" fill-opacity="0"/>
		</clipPath>
	</defs>
	<rect id="mage:goals-fill" rx="-0.500000" width="23.000000" height="23.000000" transform="translate(0.500000 0.500000)" fill="#FFFFFF" fill-opacity="0"/>
	<g clip-path="url(#clip115_1900)">
		<path id="Vector" d="M11.99 14.64C11.46 14.65 10.95 14.49 10.51 14.2C10.08 13.91 9.74 13.49 9.54 13.01C9.33 12.52 9.28 11.99 9.39 11.47C9.49 10.96 9.74 10.49 10.12 10.11C10.19 10.05 10.27 9.99 10.36 9.95C10.45 9.92 10.55 9.9 10.65 9.9C10.75 9.9 10.85 9.92 10.94 9.96C11.03 9.99 11.11 10.05 11.18 10.12C11.25 10.19 11.31 10.27 11.34 10.37C11.38 10.46 11.4 10.55 11.4 10.65C11.4 10.75 11.38 10.85 11.34 10.94C11.3 11.03 11.25 11.12 11.18 11.18C11.07 11.29 10.98 11.42 10.93 11.56C10.87 11.69 10.84 11.84 10.84 11.99C10.82 12.23 10.89 12.47 11.01 12.67C11.14 12.87 11.33 13.03 11.55 13.12C11.77 13.2 12.01 13.22 12.24 13.17C12.47 13.11 12.68 12.98 12.84 12.8C12.98 12.66 13.17 12.58 13.37 12.58C13.57 12.58 13.76 12.66 13.91 12.8C14.05 12.95 14.12 13.14 14.12 13.34C14.12 13.54 14.05 13.73 13.91 13.87C13.65 14.12 13.35 14.32 13.02 14.45C12.69 14.59 12.34 14.65 11.99 14.64Z" fill="#93BCE0" fill-opacity="1.000000" fill-rule="nonzero"/>
		<g opacity="0.300000">
			<path id="Vector" d="M22.24 12C22.24 14.71 21.16 17.32 19.23 19.24C17.31 21.17 14.71 22.25 11.99 22.25C9.27 22.25 6.66 21.17 4.74 19.24C2.82 17.32 1.74 14.71 1.74 12C1.74 9.28 2.82 6.67 4.74 4.75C6.66 2.82 9.27 1.75 11.99 1.75C12.19 1.75 12.38 1.82 12.52 1.96C12.66 2.11 12.74 2.3 12.74 2.5L12.74 6.3C12.73 6.49 12.65 6.68 12.51 6.82C12.37 6.96 12.19 7.04 11.99 7.05C11.01 7.04 10.05 7.33 9.24 7.88C8.42 8.42 7.78 9.19 7.41 10.09C7.03 11 6.93 11.99 7.13 12.96C7.44 14.09 8.15 15.09 9.12 15.75C10.1 16.42 11.28 16.72 12.45 16.6C13.63 16.48 14.73 15.95 15.55 15.1C16.37 14.25 16.86 13.13 16.94 11.96C16.94 11.86 16.95 11.76 16.99 11.67C17.03 11.57 17.08 11.49 17.15 11.42C17.22 11.35 17.31 11.3 17.4 11.26C17.49 11.22 17.59 11.2 17.69 11.21L21.49 11.21C21.59 11.2 21.69 11.23 21.78 11.27C21.88 11.31 21.96 11.36 22.03 11.44C22.1 11.51 22.16 11.6 22.19 11.7C22.23 11.79 22.24 11.89 22.24 12Z" fill="#93BCE0" fill-opacity="1.000000" fill-rule="nonzero"/>
		</g>
		<path id="Vector" d="M21.88 6.12C21.85 6.32 21.77 6.5 21.65 6.65L19.48 8.82C19.17 9.13 18.79 9.36 18.37 9.48C18.12 9.56 17.86 9.6 17.61 9.59C17.43 9.61 17.25 9.61 17.08 9.59L15.75 9.33L13.47 11.62C13.32 11.76 13.13 11.84 12.94 11.85C12.74 11.84 12.55 11.77 12.41 11.62C12.34 11.56 12.28 11.47 12.24 11.38C12.2 11.29 12.18 11.19 12.18 11.1C12.18 11 12.2 10.9 12.24 10.81C12.28 10.72 12.34 10.63 12.41 10.56L14.7 8.26L14.43 6.94C14.35 6.52 14.37 6.08 14.49 5.66C14.61 5.25 14.84 4.86 15.15 4.55L17.3 2.4C17.44 2.27 17.63 2.18 17.83 2.15C18.01 2.13 18.2 2.16 18.37 2.24C18.53 2.33 18.67 2.46 18.77 2.62C18.86 2.79 18.91 2.99 18.89 3.19L18.57 5.45L20.82 5.14C21.01 5.13 21.2 5.17 21.36 5.26C21.53 5.35 21.66 5.49 21.75 5.65C21.83 5.8 21.87 5.96 21.88 6.12Z" fill="#93BCE0" fill-opacity="1.000000" fill-rule="nonzero"/>
	</g>
</svg>
