<svg width="24.000000" height="24.000000" viewBox="0 0 24 24" fill="none" xmlns="http://www.w3.org/2000/svg" xmlns:xlink="http://www.w3.org/1999/xlink">
	<desc>
			Created with Pixso.
	</desc>
	<defs>
		<clipPath id="clip42_912">
			<rect id="akar-icons:person" rx="-0.500000" width="23.000000" height="23.000000" transform="translate(0.500000 0.500000)" fill="white" fill-opacity="0"/>
		</clipPath>
	</defs>
	<rect id="akar-icons:person" rx="-0.500000" width="23.000000" height="23.000000" transform="translate(0.500000 0.500000)" fill="#FFFFFF" fill-opacity="0"/>
	<g clip-path="url(#clip42_912)">
		<path id="Vector" d="M12 12C9.23 12 7 9.76 7 7C7 4.23 9.23 2 12 2C14.76 2 17 4.23 17 7C17 9.76 14.76 12 12 12Z" stroke="#9BC5E9" stroke-opacity="1.000000" stroke-width="2.000000"/>
		<path id="Vector" d="M17 14L17.35 14C18.08 14 18.78 14.26 19.33 14.75C19.88 15.23 20.23 15.9 20.32 16.62L20.71 19.75C20.75 20.03 20.72 20.31 20.64 20.59C20.56 20.86 20.42 21.11 20.23 21.32C20.04 21.53 19.81 21.7 19.55 21.82C19.29 21.93 19.01 22 18.73 22L5.26 22C4.98 22 4.7 21.93 4.44 21.82C4.18 21.7 3.95 21.53 3.76 21.32C3.57 21.11 3.43 20.86 3.35 20.59C3.27 20.31 3.24 20.03 3.28 19.75L3.67 16.62C3.76 15.9 4.11 15.23 4.66 14.75C5.21 14.26 5.91 13.99 6.64 14L7 14" stroke="#9BC5E9" stroke-opacity="1.000000" stroke-width="2.000000" stroke-linejoin="round" stroke-linecap="round"/>
	</g>
</svg>
