<svg width="24.000000" height="24.000000" viewBox="0 0 24 24" fill="none" xmlns="http://www.w3.org/2000/svg" xmlns:xlink="http://www.w3.org/1999/xlink">
	<desc>
			Created with Pixso.
	</desc>
	<defs>
		<clipPath id="clip59_1734">
			<rect id="solar:question-square-bold-duotone" rx="0.000000" width="23.000000" height="23.000000" transform="translate(0.500000 0.500000)" fill="white" fill-opacity="0"/>
		</clipPath>
	</defs>
	<rect id="solar:question-square-bold-duotone" rx="0.000000" width="23.000000" height="23.000000" transform="translate(0.500000 0.500000)" fill="#FFFFFF" fill-opacity="0"/>
	<g clip-path="url(#clip59_1734)">
		<g opacity="0.300000">
			<path id="Vector" d="M12 22C7.28 22 4.92 22 3.46 20.53C2 19.07 2 16.71 2 12C2 7.28 2 4.92 3.46 3.46C4.92 2 7.28 2 12 2C16.71 2 19.07 2 20.53 3.46C22 4.92 22 7.28 22 12C22 16.71 22 19.07 20.53 20.53C19.07 22 16.71 22 12 22Z" fill="#9BC5E9" fill-opacity="1.000000" fill-rule="nonzero"/>
		</g>
		<path id="Vector" d="M9.25 6.03C9.7 5.91 10.18 6.14 10.36 6.57L11.3 8.82C11.45 9.21 11.34 9.65 11.02 9.91L9.87 10.86C10.65 12.51 11.98 13.84 13.63 14.62L14.58 13.46C14.84 13.14 15.28 13.03 15.67 13.19L17.92 14.13C18.35 14.31 18.58 14.78 18.46 15.24L17.9 17.3C17.79 17.71 17.42 18 17 18C11.2 18 6.5 13.29 6.5 7.5C6.5 7.07 6.78 6.7 7.18 6.59L9.25 6.03Z" fill="#9BC5E9" fill-opacity="1.000000" fill-rule="nonzero"/>
	</g>
</svg>
