<svg width="24.000000" height="24.000000" viewBox="0 0 24 24" fill="none" xmlns="http://www.w3.org/2000/svg" xmlns:xlink="http://www.w3.org/1999/xlink">
	<desc>
			Created with Pixso.
	</desc>
	<defs>
		<clipPath id="clip54_6886">
			<rect id="solar:question-square-bold-duotone" rx="0.000000" width="23.000000" height="23.000000" transform="translate(0.500000 0.500000)" fill="white" fill-opacity="0"/>
		</clipPath>
	</defs>
	<rect id="solar:question-square-bold-duotone" rx="0.000000" width="23.000000" height="23.000000" transform="translate(0.500000 0.500000)" fill="#FFFFFF" fill-opacity="0"/>
	<g clip-path="url(#clip54_6886)">
		<g opacity="0.300000">
			<path id="Vector" d="M12 22C7.28 22 4.92 22 3.46 20.53C2 19.07 2 16.71 2 12C2 7.28 2 4.92 3.46 3.46C4.93 2 7.28 2 12 2C16.71 2 19.07 2 20.53 3.46C22 4.92 22 7.28 22 12C22 16.71 22 19.07 20.53 20.53C19.07 22 16.71 22 12 22Z" fill="#9BC5E9" fill-opacity="1.000000" fill-rule="nonzero"/>
		</g>
		<path id="Vector" d="M12 7.75C11.37 7.75 10.87 8.25 10.87 8.87C10.87 9.07 10.79 9.26 10.65 9.4C10.51 9.54 10.32 9.62 10.12 9.62C9.92 9.62 9.73 9.54 9.59 9.4C9.45 9.26 9.37 9.07 9.37 8.87C9.37 8.44 9.48 8.02 9.68 7.64C9.88 7.26 10.17 6.93 10.53 6.69C10.89 6.45 11.3 6.3 11.72 6.26C12.15 6.21 12.58 6.28 12.98 6.44C13.38 6.6 13.73 6.86 14.01 7.19C14.28 7.52 14.48 7.91 14.56 8.33C14.65 8.75 14.64 9.19 14.52 9.6C14.4 10.01 14.18 10.39 13.88 10.7C13.79 10.79 13.7 10.88 13.61 10.97C13.41 11.16 13.22 11.37 13.04 11.58C12.82 11.87 12.75 12.07 12.75 12.25L12.75 13C12.75 13.19 12.67 13.38 12.53 13.53C12.38 13.67 12.19 13.75 12 13.75C11.8 13.75 11.61 13.67 11.46 13.53C11.32 13.38 11.25 13.19 11.25 13L11.25 12.25C11.25 11.59 11.55 11.06 11.86 10.66C12.09 10.37 12.38 10.08 12.61 9.85C12.68 9.78 12.74 9.71 12.8 9.65C12.96 9.5 13.06 9.29 13.1 9.08C13.14 8.86 13.12 8.64 13.03 8.43C12.95 8.23 12.8 8.05 12.62 7.93C12.43 7.81 12.22 7.75 12 7.75ZM12 17C12.26 17 12.51 16.89 12.7 16.7C12.89 16.51 13 16.26 13 16C13 15.73 12.89 15.48 12.7 15.29C12.51 15.1 12.26 15 12 15C11.73 15 11.48 15.1 11.29 15.29C11.1 15.48 11 15.73 11 16C11 16.26 11.1 16.51 11.29 16.7C11.48 16.89 11.73 17 12 17Z" fill="#9BC5E9" fill-opacity="1.000000" fill-rule="nonzero"/>
	</g>
</svg>
