<svg width="24.000000" height="24.000000" viewBox="0 0 24 24" fill="none" xmlns="http://www.w3.org/2000/svg" xmlns:xlink="http://www.w3.org/1999/xlink">
	<desc>
			Created with Pixso.
	</desc>
	<defs>
		<clipPath id="clip22_723">
			<rect id="solar:stars-bold-duotone" rx="-0.500000" width="23.000000" height="23.000000" transform="translate(0.500000 0.500000)" fill="white" fill-opacity="0"/>
		</clipPath>
	</defs>
	<rect id="solar:stars-bold-duotone" rx="-0.500000" width="23.000000" height="23.000000" transform="translate(0.500000 0.500000)" fill="#FFFFFF" fill-opacity="0"/>
	<g clip-path="url(#clip22_723)">
		<path id="Vector" d="M15.25 10.68C14.26 9.5 13.77 8.91 13.2 9C12.63 9.09 12.37 9.81 11.84 11.23L11.7 11.6C11.55 12 11.47 12.21 11.33 12.36C11.18 12.5 10.98 12.58 10.58 12.74L10.21 12.88C8.79 13.44 8.08 13.72 8 14.28C7.92 14.85 8.52 15.33 9.72 16.29L10.03 16.54C10.38 16.82 10.55 16.95 10.64 17.14C10.74 17.33 10.76 17.55 10.79 17.98L10.82 18.37C10.93 19.9 10.99 20.66 11.5 20.92C12.02 21.18 12.66 20.76 13.93 19.93L14.26 19.72C14.62 19.49 14.8 19.37 15.01 19.33C15.22 19.3 15.43 19.36 15.85 19.46L16.23 19.56C17.72 19.95 18.46 20.15 18.86 19.74C19.26 19.33 19.06 18.59 18.64 17.12L18.53 16.74C18.42 16.32 18.36 16.11 18.39 15.9C18.42 15.69 18.53 15.51 18.76 15.15L18.97 14.81C19.78 13.53 20.18 12.89 19.91 12.37C19.64 11.86 18.88 11.82 17.35 11.74L16.95 11.72C16.52 11.7 16.3 11.68 16.11 11.59C15.92 11.49 15.78 11.33 15.5 10.99L15.25 10.68Z" fill="#9BC5E9" fill-opacity="1.000000" fill-rule="nonzero"/>
		<g opacity="0.300000">
			<path id="Vector" d="M10.33 4.25C11.64 2.67 12.3 1.89 13.06 2.01C13.81 2.13 14.17 3.08 14.87 4.98L15.06 5.47C15.26 6.01 15.36 6.28 15.55 6.47C15.75 6.67 16.02 6.78 16.55 6.99L17.04 7.18C18.93 7.92 19.88 8.29 19.99 9.05C20.09 9.8 19.29 10.45 17.69 11.73L17.28 12.06C16.82 12.43 16.59 12.61 16.46 12.86C16.33 13.11 16.31 13.4 16.27 13.97L16.23 14.5C16.08 16.53 16.01 17.55 15.32 17.89C14.63 18.24 13.78 17.69 12.08 16.58L11.64 16.29C11.16 15.98 10.92 15.83 10.64 15.78C10.37 15.74 10.09 15.81 9.52 15.96L9.01 16.09C7.03 16.6 6.04 16.86 5.51 16.32C4.97 15.78 5.25 14.79 5.8 12.83L5.94 12.32C6.1 11.76 6.18 11.48 6.14 11.2C6.1 10.93 5.95 10.68 5.64 10.2L5.36 9.75C4.29 8.04 3.75 7.18 4.11 6.5C4.47 5.82 5.48 5.77 7.52 5.65L8.05 5.63C8.63 5.6 8.92 5.58 9.17 5.45C9.42 5.33 9.61 5.1 9.99 4.65L10.33 4.25Z" fill="#9BC5E9" fill-opacity="1.000000" fill-rule="nonzero"/>
		</g>
	</g>
</svg>
