<svg width="26.227539" height="26.227539" viewBox="0 0 26.2275 26.2275" fill="none" xmlns="http://www.w3.org/2000/svg" xmlns:xlink="http://www.w3.org/1999/xlink">
	<desc>
			Created with Pixso.
	</desc>
	<defs/>
	<path id="Vector" d="M13.11 26.22C20.35 26.22 26.22 20.35 26.22 13.11C26.22 5.87 20.35 0 13.11 0C5.87 0 0 5.87 0 13.11C0 20.35 5.87 26.22 13.11 26.22Z" fill="#34AADF" fill-opacity="1.000000" fill-rule="nonzero"/>
	<path id="Vector" d="M5.62 12.82C5.62 12.82 12.11 10.06 14.37 9.09C15.23 8.7 18.16 7.45 18.16 7.45C18.16 7.45 19.51 6.91 19.4 8.23C19.36 8.77 19.06 10.68 18.76 12.74C18.31 15.66 17.82 18.85 17.82 18.85C17.82 18.85 17.75 19.75 17.11 19.91C16.47 20.06 15.42 19.36 15.23 19.21C15.08 19.09 12.41 17.34 11.44 16.48C11.17 16.25 10.87 15.78 11.47 15.24C12.83 13.95 14.44 12.35 15.42 11.34C15.87 10.88 16.32 9.79 14.44 11.11C11.77 13.02 9.15 14.81 9.15 14.81C9.15 14.81 8.55 15.2 7.42 14.85C6.29 14.5 4.98 14.03 4.98 14.03C4.98 14.03 4.08 13.44 5.62 12.82Z" fill="#FFFFFF" fill-opacity="1.000000" fill-rule="nonzero"/>
</svg>
